<?xml version="1.0" encoding="UTF-8" standalone="no"?>
<svg
   xmlns:dc="http://purl.org/dc/elements/1.1/"
   xmlns:cc="http://creativecommons.org/ns#"
   xmlns:rdf="http://www.w3.org/1999/02/22-rdf-syntax-ns#"
   xmlns:svg="http://www.w3.org/2000/svg"
   xmlns="http://www.w3.org/2000/svg"
   xmlns:sodipodi="http://sodipodi.sourceforge.net/DTD/sodipodi-0.dtd"
   xmlns:inkscape="http://www.inkscape.org/namespaces/inkscape"
   width="420"
   height="420"
   viewBox="0 0 111.125 111.12501"
   version="1.1"
   id="svg8"
   inkscape:version="1.0.2-2 (e86c870879, 2021-01-15)"
   sodipodi:docname="Hiragana letter Wi.svg">
  <defs
     id="defs2" />
  <sodipodi:namedview
     id="base"
     pagecolor="#ffffff"
     bordercolor="#666666"
     borderopacity="1.0"
     inkscape:pageopacity="0.0"
     inkscape:pageshadow="2"
     inkscape:zoom="0.98994949"
     inkscape:cx="345.76714"
     inkscape:cy="230.41447"
     inkscape:document-units="px"
     inkscape:current-layer="layer1"
     showgrid="false"
     units="px"
     showguides="true"
     inkscape:guide-bbox="true"
     inkscape:snap-center="true"
     inkscape:snap-object-midpoints="false"
     inkscape:window-width="1366"
     inkscape:window-height="705"
     inkscape:window-x="-8"
     inkscape:window-y="-8"
     inkscape:window-maximized="1"
     inkscape:document-rotation="0"
     inkscape:snap-bbox="true"
     inkscape:bbox-paths="true"
     inkscape:bbox-nodes="true" />
  <metadata
     id="metadata5">
    <rdf:RDF>
      <cc:Work
         rdf:about="">
        <dc:format>image/svg+xml</dc:format>
        <dc:type
           rdf:resource="http://purl.org/dc/dcmitype/StillImage" />
        <dc:title />
      </cc:Work>
    </rdf:RDF>
  </metadata>
  <g
     inkscape:label="Layer 1"
     inkscape:groupmode="layer"
     id="layer1"
     transform="translate(0,-185.87499)">
    <path
       d="m 61.012902,279.69613 c -6.032481,0 -10.5833,-2.43416 -10.5833,-6.56165 0,-3.59832 2.857491,-6.45581 7.40831,-6.45581 6.138314,0 9.419137,6.24415 9.948302,12.59413 -2.11666,0.3175 -4.339153,0.42333 -6.773312,0.42333 z M 32.01466,268.26616 c -3.069157,4.65666 -5.185817,5.82082 -7.090811,5.82082 -2.645825,0 -4.974151,-5.07998 -5.29165,-8.57247 -0.211666,-2.85749 0.529165,-5.92665 2.539992,-8.99581 5.079984,-7.72581 16.086616,-15.76912 26.881582,-20.74327 -5.397483,13.33496 -11.853296,25.50576 -17.039113,32.49073 z M 28.522171,205.1897 c 0,1.90499 0.105833,4.02165 0.952497,6.13831 1.05833,2.43416 5.714982,6.56165 8.360807,6.56165 2.11666,0 3.17499,-2.01083 5.609149,-3.38666 3.17499,-1.69333 7.937475,-4.02165 12.276628,-5.39748 1.481662,-0.42333 1.799161,-0.10584 1.481662,1.37583 -1.481662,6.45581 -3.598322,13.22912 -6.138314,19.79077 -11.324131,4.02165 -22.119097,11.11246 -28.998242,18.83827 -3.704155,4.23332 -7.090811,10.68913 -7.090811,15.23995 0,8.25498 5.397483,17.67411 9.419137,17.67411 4.868318,0 8.678306,-4.02165 14.075789,-12.38246 5.185817,-8.14914 12.170795,-23.28326 17.568278,-36.72405 4.23332,-1.48166 8.254974,-2.32832 11.64163,-2.32832 13.969956,0 21.589932,10.68913 21.695765,24.12992 0.105833,12.59413 -4.762485,20.31994 -15.345785,23.38909 -0.740831,-8.3608 -6.244147,-15.34578 -15.239952,-15.34578 -7.196644,0 -12.488294,5.29165 -12.488294,11.85329 0,6.03249 6.455813,10.79497 15.87495,10.79497 25.39992,0 33.972393,-13.44079 33.972393,-28.68074 0,-19.47327 -12.805793,-29.63324 -27.622413,-29.63324 -3.492489,0 -7.090811,0.42333 -10.689133,1.26999 2.010827,-5.07998 3.704155,-9.73663 4.868318,-13.44079 1.481662,-3.91582 4.444986,-4.44498 4.444986,-6.66748 0,-2.53999 -6.34998,-6.03248 -9.313304,-6.03248 -1.269996,0 -2.11666,1.79916 -4.021654,2.43416 -4.444986,1.79916 -14.075789,5.29165 -17.99161,5.29165 -2.645825,0 -4.127487,-3.06916 -5.29165,-5.39748 z"
       style="font-style:normal;font-variant:normal;font-weight:normal;font-stretch:normal;font-size:105.833px;line-height:100%;font-family:'Noto Serif CJK JP';-inkscape-font-specification:'Noto Serif CJK JP';text-align:center;letter-spacing:0px;word-spacing:0px;text-anchor:middle;fill:#000000;fill-opacity:1;stroke:none;stroke-width:0.264583px;stroke-linecap:butt;stroke-linejoin:miter;stroke-opacity:1"
       id="path9" />
  </g>
</svg>
