<?xml version="1.0" encoding="UTF-8" standalone="no"?>
<svg
   xmlns:dc="http://purl.org/dc/elements/1.1/"
   xmlns:cc="http://creativecommons.org/ns#"
   xmlns:rdf="http://www.w3.org/1999/02/22-rdf-syntax-ns#"
   xmlns:svg="http://www.w3.org/2000/svg"
   xmlns="http://www.w3.org/2000/svg"
   xmlns:sodipodi="http://sodipodi.sourceforge.net/DTD/sodipodi-0.dtd"
   xmlns:inkscape="http://www.inkscape.org/namespaces/inkscape"
   width="420"
   height="420"
   viewBox="0 0 111.125 111.12501"
   version="1.1"
   id="svg8"
   inkscape:version="1.0.2-2 (e86c870879, 2021-01-15)"
   sodipodi:docname="Hiragana letter Ni.svg">
  <defs
     id="defs2" />
  <sodipodi:namedview
     id="base"
     pagecolor="#ffffff"
     bordercolor="#666666"
     borderopacity="1.0"
     inkscape:pageopacity="0.0"
     inkscape:pageshadow="2"
     inkscape:zoom="0.98994949"
     inkscape:cx="345.76714"
     inkscape:cy="230.41447"
     inkscape:document-units="px"
     inkscape:current-layer="layer1"
     showgrid="false"
     units="px"
     showguides="true"
     inkscape:guide-bbox="true"
     inkscape:snap-center="true"
     inkscape:snap-object-midpoints="false"
     inkscape:window-width="1366"
     inkscape:window-height="705"
     inkscape:window-x="-8"
     inkscape:window-y="-8"
     inkscape:window-maximized="1"
     inkscape:document-rotation="0"
     inkscape:snap-bbox="true"
     inkscape:bbox-paths="true"
     inkscape:bbox-nodes="true" />
  <metadata
     id="metadata5">
    <rdf:RDF>
      <cc:Work
         rdf:about="">
        <dc:format>image/svg+xml</dc:format>
        <dc:type
           rdf:resource="http://purl.org/dc/dcmitype/StillImage" />
        <dc:title />
      </cc:Work>
    </rdf:RDF>
  </metadata>
  <g
     inkscape:label="Layer 1"
     inkscape:groupmode="layer"
     id="layer1"
     transform="translate(0,-185.87499)">
    <path
       d="m 34.342986,242.76041 c -2.328326,5.39748 -8.254974,18.62661 -10.5833,22.33076 -0.952497,1.37583 -1.693328,1.16417 -2.328326,-0.10583 -0.846664,-1.37583 -1.693328,-3.49249 -1.693328,-9.10164 0,-10.47746 4.021654,-20.00243 6.773312,-25.92908 2.539992,-6.34998 4.021654,-8.25498 4.021654,-10.68913 0,-4.44499 -4.656652,-9.31331 -6.879145,-11.11247 -1.799161,-1.37583 -3.280823,-2.22249 -5.397483,-3.17499 l -1.693328,1.37583 c 3.492489,3.80999 6.032481,7.30248 5.926648,11.11246 -0.105833,3.49249 -1.375829,7.19665 -2.645825,12.27663 -1.693328,6.34998 -5.079984,15.34579 -5.079984,27.93991 0,9.84247 3.280823,19.36744 6.138314,23.7066 1.375829,2.22249 3.069157,3.91582 4.974151,3.91582 2.010827,0 3.069157,-1.16417 3.069157,-3.17499 0,-2.53999 -2.11666,-5.92665 -2.11666,-8.99581 0,-1.90499 0.740831,-4.33915 1.799161,-7.61997 1.164163,-4.02166 6.032481,-15.98079 8.254974,-21.4841 z m 10.689133,10.79497 c 0,2.85749 0.423332,6.24414 1.375829,9.41913 3.17499,10.79497 12.170795,16.29829 28.680743,16.29829 11.429964,0 21.272433,-1.27 21.272433,-5.50332 0,-2.43416 -2.751658,-3.38666 -5.609149,-3.38666 -2.539992,0 -6.561646,1.905 -17.99161,1.905 -13.017459,0 -18.626608,-3.70416 -22.22493,-9.9483 -1.481662,-2.64583 -2.434159,-6.66748 -3.069157,-9.20747 z m 4.656652,-31.00907 c 8.889972,-2.85749 15.769117,-3.49249 20.10827,-3.49249 6.984978,0 7.090811,0.74083 5.820815,1.90499 -2.222493,1.905 -9.736636,7.40831 -14.499121,10.79497 l 1.799161,1.90499 c 5.185817,-3.28082 12.69996,-7.51414 17.356612,-9.6308 3.492489,-1.48166 6.138314,-1.69333 8.678306,-2.01083 2.222493,-0.3175 2.857491,-1.26999 2.857491,-2.64582 0,-1.27 -0.952497,-2.75166 -3.17499,-3.70416 -3.386656,-1.48166 -7.40831,-2.22249 -14.710787,-2.22249 -7.40831,0 -16.827447,1.90499 -25.294087,6.56165 z"
       style="font-style:normal;font-variant:normal;font-weight:normal;font-stretch:normal;font-size:105.833px;line-height:100%;font-family:'Noto Serif CJK JP';-inkscape-font-specification:'Noto Serif CJK JP';text-align:center;letter-spacing:0px;word-spacing:0px;text-anchor:middle;fill:#000000;fill-opacity:1;stroke:none;stroke-width:0.264583px;stroke-linecap:butt;stroke-linejoin:miter;stroke-opacity:1"
       id="path9" />
  </g>
</svg>
