<?xml version="1.0" encoding="UTF-8" standalone="no"?>
<svg
   xmlns:dc="http://purl.org/dc/elements/1.1/"
   xmlns:cc="http://creativecommons.org/ns#"
   xmlns:rdf="http://www.w3.org/1999/02/22-rdf-syntax-ns#"
   xmlns:svg="http://www.w3.org/2000/svg"
   xmlns="http://www.w3.org/2000/svg"
   xmlns:sodipodi="http://sodipodi.sourceforge.net/DTD/sodipodi-0.dtd"
   xmlns:inkscape="http://www.inkscape.org/namespaces/inkscape"
   width="420"
   height="420"
   viewBox="0 0 111.125 111.12501"
   version="1.1"
   id="svg8"
   inkscape:version="1.0.2-2 (e86c870879, 2021-01-15)"
   sodipodi:docname="Hiragana letter Wa.svg">
  <defs
     id="defs2" />
  <sodipodi:namedview
     id="base"
     pagecolor="#ffffff"
     bordercolor="#666666"
     borderopacity="1.0"
     inkscape:pageopacity="0.0"
     inkscape:pageshadow="2"
     inkscape:zoom="0.98994949"
     inkscape:cx="345.76714"
     inkscape:cy="230.41447"
     inkscape:document-units="px"
     inkscape:current-layer="layer1"
     showgrid="false"
     units="px"
     showguides="true"
     inkscape:guide-bbox="true"
     inkscape:snap-center="true"
     inkscape:snap-object-midpoints="false"
     inkscape:window-width="1366"
     inkscape:window-height="705"
     inkscape:window-x="-8"
     inkscape:window-y="-8"
     inkscape:window-maximized="1"
     inkscape:document-rotation="0"
     inkscape:snap-bbox="true"
     inkscape:bbox-paths="true"
     inkscape:bbox-nodes="true" />
  <metadata
     id="metadata5">
    <rdf:RDF>
      <cc:Work
         rdf:about="">
        <dc:format>image/svg+xml</dc:format>
        <dc:type
           rdf:resource="http://purl.org/dc/dcmitype/StillImage" />
        <dc:title />
      </cc:Work>
    </rdf:RDF>
  </metadata>
  <g
     inkscape:label="Layer 1"
     inkscape:groupmode="layer"
     id="layer1"
     transform="translate(0,-185.87499)">
    <path
       d="m 35.507149,272.18199 c -1.481662,-1.905 -5.29165,-6.56165 -8.360807,-10.5833 3.386656,-4.86832 6.879145,-9.94831 9.736636,-14.39329 -0.211666,9.52497 0.105833,19.04994 0.105833,24.23575 -0.105833,1.69333 -0.634998,1.69333 -1.481662,0.74084 z m 6.667479,-36.93572 c 1.269996,-1.79916 2.645825,-3.49249 3.809988,-4.76249 1.375829,-1.58749 2.539992,-2.53999 2.434159,-3.80998 0,-1.37583 -2.222493,-3.38666 -4.021654,-4.55082 0.740831,-3.59833 1.587495,-6.66748 2.010827,-8.25498 1.05833,-4.23332 2.328326,-5.29165 2.328326,-7.40831 0,-2.96332 -5.29165,-7.61997 -9.736636,-7.61997 -2.434159,0 -4.550819,0.52916 -6.561646,1.16416 l 0.105833,2.11666 c 2.434159,0.42333 4.339153,0.9525 5.820815,1.48166 1.799161,0.635 2.434159,1.16416 2.434159,3.59832 0,3.17499 -0.846664,8.99581 -1.693328,16.19245 -4.868318,2.43416 -15.345785,7.30248 -17.885777,7.30248 -1.904994,0 -3.386656,-1.69333 -4.974151,-4.86832 l -1.904994,0.74083 c 0,1.27 0,2.75166 0.423332,4.33916 1.05833,3.38665 5.609149,7.40831 8.572473,7.40831 1.693328,0 2.645825,-2.11666 4.974151,-3.59833 2.751658,-1.58749 6.455813,-3.70415 10.054135,-5.60915 -0.317499,2.75166 -0.634998,5.50332 -0.846664,8.36081 -7.302477,11.32413 -18.838274,25.61159 -23.071594,30.16241 -2.010827,2.22249 -2.434159,3.49249 -2.434159,5.39748 0,2.11666 1.269996,3.70415 2.857491,3.70415 1.587495,-0.10583 2.539992,-1.37582 3.809988,-3.17499 2.010827,-2.75165 4.339153,-6.03248 6.773312,-9.52497 3.17499,4.55082 6.984978,10.5833 7.937475,13.22913 0.952497,2.43416 1.375829,4.23332 1.904994,6.77331 0.423332,2.43416 1.481662,3.59832 3.492489,3.59832 2.963324,0 4.339153,-5.07998 4.339153,-8.6783 0,-2.32833 -0.317499,-4.23332 -0.529165,-6.98498 -0.423332,-5.71498 -1.587495,-18.30911 -0.952497,-30.26824 7.619976,-6.45581 18.838274,-12.27663 30.268238,-12.27663 12.064962,0 19.579105,8.78414 19.579105,18.09745 0,12.38246 -5.926648,25.18825 -32.384898,35.13655 l 1.05833,2.43416 c 27.622413,-6.77331 38.946544,-19.68494 38.946544,-35.45405 0,-13.86413 -12.276628,-23.81243 -26.034918,-23.81243 -12.064962,0 -21.695765,4.76249 -31.114902,10.5833 z"
       style="font-style:normal;font-variant:normal;font-weight:normal;font-stretch:normal;font-size:105.833px;line-height:100%;font-family:'Noto Serif CJK JP';-inkscape-font-specification:'Noto Serif CJK JP';text-align:center;letter-spacing:0px;word-spacing:0px;text-anchor:middle;fill:#000000;fill-opacity:1;stroke:none;stroke-width:0.264583px;stroke-linecap:butt;stroke-linejoin:miter;stroke-opacity:1"
       id="path9" />
  </g>
</svg>
