<?xml version="1.0" encoding="UTF-8" standalone="no"?>
<svg
   xmlns:dc="http://purl.org/dc/elements/1.1/"
   xmlns:cc="http://creativecommons.org/ns#"
   xmlns:rdf="http://www.w3.org/1999/02/22-rdf-syntax-ns#"
   xmlns:svg="http://www.w3.org/2000/svg"
   xmlns="http://www.w3.org/2000/svg"
   xmlns:sodipodi="http://sodipodi.sourceforge.net/DTD/sodipodi-0.dtd"
   xmlns:inkscape="http://www.inkscape.org/namespaces/inkscape"
   width="420"
   height="420"
   viewBox="0 0 111.125 111.12501"
   version="1.1"
   id="svg8"
   inkscape:version="1.0.2-2 (e86c870879, 2021-01-15)"
   sodipodi:docname="Hiragana letter So.svg">
  <defs
     id="defs2" />
  <sodipodi:namedview
     id="base"
     pagecolor="#ffffff"
     bordercolor="#666666"
     borderopacity="1.0"
     inkscape:pageopacity="0.0"
     inkscape:pageshadow="2"
     inkscape:zoom="0.98994949"
     inkscape:cx="345.76714"
     inkscape:cy="230.41447"
     inkscape:document-units="px"
     inkscape:current-layer="layer1"
     showgrid="false"
     units="px"
     showguides="true"
     inkscape:guide-bbox="true"
     inkscape:snap-center="true"
     inkscape:snap-object-midpoints="false"
     inkscape:window-width="1366"
     inkscape:window-height="705"
     inkscape:window-x="-8"
     inkscape:window-y="-8"
     inkscape:window-maximized="1"
     inkscape:document-rotation="0"
     inkscape:snap-bbox="true"
     inkscape:bbox-paths="true"
     inkscape:bbox-nodes="true" />
  <metadata
     id="metadata5">
    <rdf:RDF>
      <cc:Work
         rdf:about="">
        <dc:format>image/svg+xml</dc:format>
        <dc:type
           rdf:resource="http://purl.org/dc/dcmitype/StillImage" />
        <dc:title />
      </cc:Work>
    </rdf:RDF>
  </metadata>
  <g
     inkscape:label="Layer 1"
     inkscape:groupmode="layer"
     id="layer1"
     transform="translate(0,-185.87499)">
    <path
       d="m 31.485495,202.75554 c -0.423332,1.48166 -0.846664,3.80999 -0.634998,5.18581 0.317499,4.33916 6.34998,9.10164 8.889972,9.10164 2.434159,0 3.386656,-1.58749 7.831642,-3.49249 4.762485,-1.90499 12.170795,-4.33915 17.462445,-5.71498 1.164163,-0.3175 1.693328,-0.21166 0.846664,1.16416 -4.339153,7.51415 -20.10827,23.81243 -26.564083,29.84491 -4.656652,4.55082 -7.937475,7.19664 -12.382461,9.20747 -2.963324,1.37583 -6.455813,2.43416 -9.101638,3.28082 -1.904994,0.635 -2.645825,1.905 -2.645825,3.59833 0,2.32832 2.539992,4.44498 4.550819,4.44498 3.069157,0 5.397483,-2.53999 12.064962,-6.13831 5.29165,-2.96333 14.181622,-6.03248 21.907431,-8.36081 1.375829,-0.42333 1.587495,0.10583 0.529165,1.05833 -5.079984,4.23332 -11.218298,10.68913 -11.218298,20.74327 0,11.2183 8.360807,17.25078 18.097443,19.47327 4.127487,1.05833 9.630803,1.48166 12.911626,1.48166 4.550819,0 6.667479,-1.05833 6.667479,-3.28082 0,-2.01083 -2.434159,-4.12749 -4.339153,-4.55082 -2.539992,-0.42333 -6.561646,0.3175 -12.170795,-0.52916 -9.52497,-1.37583 -15.980783,-5.71499 -16.086616,-14.18163 -0.105833,-8.9958 4.974151,-14.18162 9.948302,-17.99161 4.656652,-3.59832 14.287455,-6.24414 23.28326,-6.66747 4.444986,-0.21167 6.879145,0 9.207471,0 4.021654,0 5.397483,-1.16417 5.397483,-2.8575 0,-2.75165 -4.23332,-4.86831 -8.254974,-4.86831 -2.963324,0 -7.090811,1.05833 -14.710787,2.85749 -7.196644,1.69333 -22.754095,6.34998 -33.231562,9.3133 -0.529165,0.10583 -0.740831,-0.3175 -0.317499,-0.74083 12.805793,-12.17079 21.060767,-18.83827 32.384898,-30.1624 2.645825,-2.75166 5.29165,-2.54 5.29165,-4.76249 0,-2.96332 -6.561646,-7.51414 -9.207471,-7.51414 -1.904994,0 -2.010827,1.37583 -5.609149,2.53999 -4.762485,1.27 -19.790771,5.07998 -23.600759,4.97415 -2.010827,0 -3.915821,-3.59832 -5.714982,-6.87914 z"
       style="font-style:normal;font-variant:normal;font-weight:normal;font-stretch:normal;font-size:105.833px;line-height:100%;font-family:'Noto Serif CJK JP';-inkscape-font-specification:'Noto Serif CJK JP';text-align:center;letter-spacing:0px;word-spacing:0px;text-anchor:middle;fill:#000000;fill-opacity:1;stroke:none;stroke-width:0.264583px;stroke-linecap:butt;stroke-linejoin:miter;stroke-opacity:1"
       id="path9" />
  </g>
</svg>
