<?xml version="1.0" encoding="UTF-8" standalone="no"?>
<svg
   xmlns:dc="http://purl.org/dc/elements/1.1/"
   xmlns:cc="http://creativecommons.org/ns#"
   xmlns:rdf="http://www.w3.org/1999/02/22-rdf-syntax-ns#"
   xmlns:svg="http://www.w3.org/2000/svg"
   xmlns="http://www.w3.org/2000/svg"
   xmlns:sodipodi="http://sodipodi.sourceforge.net/DTD/sodipodi-0.dtd"
   xmlns:inkscape="http://www.inkscape.org/namespaces/inkscape"
   width="420"
   height="420"
   viewBox="0 0 111.125 111.12501"
   version="1.1"
   id="svg8"
   inkscape:version="1.0.2-2 (e86c870879, 2021-01-15)"
   sodipodi:docname="Hiragana letter U.svg">
  <defs
     id="defs2" />
  <sodipodi:namedview
     id="base"
     pagecolor="#ffffff"
     bordercolor="#666666"
     borderopacity="1.0"
     inkscape:pageopacity="0.0"
     inkscape:pageshadow="2"
     inkscape:zoom="0.98994949"
     inkscape:cx="345.76714"
     inkscape:cy="230.41447"
     inkscape:document-units="px"
     inkscape:current-layer="layer1"
     showgrid="false"
     units="px"
     showguides="true"
     inkscape:guide-bbox="true"
     inkscape:snap-center="true"
     inkscape:snap-object-midpoints="false"
     inkscape:window-width="1366"
     inkscape:window-height="705"
     inkscape:window-x="-8"
     inkscape:window-y="-8"
     inkscape:window-maximized="1"
     inkscape:document-rotation="0"
     inkscape:snap-bbox="true"
     inkscape:bbox-paths="true"
     inkscape:bbox-nodes="true" />
  <metadata
     id="metadata5">
    <rdf:RDF>
      <cc:Work
         rdf:about="">
        <dc:format>image/svg+xml</dc:format>
        <dc:type
           rdf:resource="http://purl.org/dc/dcmitype/StillImage" />
        <dc:title />
      </cc:Work>
    </rdf:RDF>
  </metadata>
  <g
     inkscape:label="Layer 1"
     inkscape:groupmode="layer"
     id="layer1"
     transform="translate(0,-185.87499)">
    <path
       d="m 27.563446,228.15546 c -0.317499,2.85749 -0.634998,4.97415 0.423332,7.30247 1.164163,2.8575 5.079984,6.98498 8.572473,6.98498 2.645825,0 4.550819,-2.11666 6.879145,-3.70415 4.021654,-2.64583 14.181622,-9.20747 21.272433,-9.20747 6.561646,0 11.535797,6.24414 11.535797,17.56827 0,20.95494 -14.287455,33.44323 -40.004874,39.68738 l 0.846664,2.43416 c 28.57491,-4.44499 46.778186,-17.46245 46.778186,-40.85154 0,-14.07579 -7.40831,-22.75409 -18.520775,-22.75409 -11.324131,0 -25.188254,8.57247 -29.844906,8.57247 -2.434159,0 -4.339153,-2.32833 -6.032481,-6.66748 z m 28.998242,-19.89661 c -2.963324,2.01083 -7.831642,4.65666 -12.276628,7.09081 l 0.952497,2.01083 c 5.185817,-2.11666 13.969956,-5.71498 19.261606,-7.19664 2.963324,-0.84667 5.926648,-0.9525 7.619976,-1.05833 2.328326,-0.10584 3.598322,-0.84667 3.598322,-2.2225 0,-2.85749 -4.444986,-4.55081 -8.254974,-4.55081 -1.693328,0 -5.397483,0.84666 -8.46664,0.84666 -6.032481,0 -12.488294,-1.05833 -20.002437,-6.13831 l -1.269996,1.69332 c 6.561646,8.04331 15.451618,8.99581 18.838274,9.52497 z"
       style="font-style:normal;font-variant:normal;font-weight:normal;font-stretch:normal;font-size:105.833px;line-height:100%;font-family:'Noto Serif CJK JP';-inkscape-font-specification:'Noto Serif CJK JP';text-align:center;letter-spacing:0px;word-spacing:0px;text-anchor:middle;fill:#000000;fill-opacity:1;stroke:none;stroke-width:0.264583px;stroke-linecap:butt;stroke-linejoin:miter;stroke-opacity:1"
       id="path9" />
  </g>
</svg>
