<?xml version="1.0" encoding="UTF-8" standalone="no"?>
<svg
   xmlns:dc="http://purl.org/dc/elements/1.1/"
   xmlns:cc="http://creativecommons.org/ns#"
   xmlns:rdf="http://www.w3.org/1999/02/22-rdf-syntax-ns#"
   xmlns:svg="http://www.w3.org/2000/svg"
   xmlns="http://www.w3.org/2000/svg"
   xmlns:sodipodi="http://sodipodi.sourceforge.net/DTD/sodipodi-0.dtd"
   xmlns:inkscape="http://www.inkscape.org/namespaces/inkscape"
   width="420"
   height="420"
   viewBox="0 0 111.125 111.12501"
   version="1.1"
   id="svg8"
   inkscape:version="1.0.2-2 (e86c870879, 2021-01-15)"
   sodipodi:docname="Hiragana letter Ra.svg">
  <defs
     id="defs2" />
  <sodipodi:namedview
     id="base"
     pagecolor="#ffffff"
     bordercolor="#666666"
     borderopacity="1.0"
     inkscape:pageopacity="0.0"
     inkscape:pageshadow="2"
     inkscape:zoom="0.98994949"
     inkscape:cx="345.76714"
     inkscape:cy="230.41447"
     inkscape:document-units="px"
     inkscape:current-layer="layer1"
     showgrid="false"
     units="px"
     showguides="true"
     inkscape:guide-bbox="true"
     inkscape:snap-center="true"
     inkscape:snap-object-midpoints="false"
     inkscape:window-width="1366"
     inkscape:window-height="705"
     inkscape:window-x="-8"
     inkscape:window-y="-8"
     inkscape:window-maximized="1"
     inkscape:document-rotation="0"
     inkscape:snap-bbox="true"
     inkscape:bbox-paths="true"
     inkscape:bbox-nodes="true" />
  <metadata
     id="metadata5">
    <rdf:RDF>
      <cc:Work
         rdf:about="">
        <dc:format>image/svg+xml</dc:format>
        <dc:type
           rdf:resource="http://purl.org/dc/dcmitype/StillImage" />
        <dc:title />
      </cc:Work>
    </rdf:RDF>
  </metadata>
  <g
     inkscape:label="Layer 1"
     inkscape:groupmode="layer"
     id="layer1"
     transform="translate(0,-185.87499)">
    <path
       d="m 51.276266,210.58718 c 1.693328,1.79916 1.481662,2.85749 -0.105833,3.38666 -4.23332,1.58749 -14.499121,3.80998 -20.002437,5.29165 -3.386656,0.84666 -4.339153,2.64582 -4.339153,4.86831 0,2.32833 0.423332,5.07999 -0.317499,9.52497 -0.846664,5.18582 -2.751658,14.39329 -3.492489,20.74327 -0.317499,2.64583 -1.05833,5.07999 -1.05833,6.77331 0,1.37583 0.846664,3.49249 2.11666,4.86832 1.269996,1.48166 2.328326,2.22249 3.598322,2.22249 2.010827,0 3.280823,-3.28082 4.868318,-5.07998 8.254974,-9.41914 20.849101,-18.73244 32.702397,-18.73244 9.101638,0 16.509948,5.92665 16.509948,15.34578 0,7.72581 -5.714982,16.29829 -25.294087,21.58994 -4.868318,1.37583 -12.594127,2.64582 -20.10827,2.96332 l 0.317499,2.64583 c 24.235757,1.48166 52.493168,-6.24415 52.493168,-25.29409 0,-10.5833 -7.619976,-20.95494 -23.494926,-20.95494 -11.006632,0 -23.600759,5.39749 -35.348222,15.23996 -0.846664,0.74083 -1.481662,0.52916 -1.481662,-0.635 0,-5.18582 1.481662,-10.68913 2.539992,-15.55745 0.952497,-3.70416 2.11666,-6.45582 2.010827,-9.10164 0,-2.11666 -1.269996,-4.97415 -1.269996,-6.13831 0,-1.05833 0.529165,-1.79917 2.222493,-2.2225 2.645825,-0.635 9.948302,-2.32832 15.980783,-2.53999 4.656652,-0.10583 5.397483,0.635 8.149141,0.635 2.222493,0 3.386656,-1.37583 3.386656,-4.02166 0,-3.70415 -1.481662,-6.77331 -6.032481,-9.9483 -3.704155,-2.53999 -9.207471,-5.07998 -19.04994,-6.03248 l -0.634998,2.32833 c 6.561646,1.90499 12.382461,4.44498 15.134119,7.83164 z"
       style="font-style:normal;font-variant:normal;font-weight:normal;font-stretch:normal;font-size:105.833px;line-height:100%;font-family:'Noto Serif CJK JP';-inkscape-font-specification:'Noto Serif CJK JP';text-align:center;letter-spacing:0px;word-spacing:0px;text-anchor:middle;fill:#000000;fill-opacity:1;stroke:none;stroke-width:0.264583px;stroke-linecap:butt;stroke-linejoin:miter;stroke-opacity:1"
       id="path9" />
  </g>
</svg>
