<?xml version="1.0" encoding="UTF-8" standalone="no"?>
<svg
   xmlns:dc="http://purl.org/dc/elements/1.1/"
   xmlns:cc="http://creativecommons.org/ns#"
   xmlns:rdf="http://www.w3.org/1999/02/22-rdf-syntax-ns#"
   xmlns:svg="http://www.w3.org/2000/svg"
   xmlns="http://www.w3.org/2000/svg"
   xmlns:sodipodi="http://sodipodi.sourceforge.net/DTD/sodipodi-0.dtd"
   xmlns:inkscape="http://www.inkscape.org/namespaces/inkscape"
   width="420"
   height="420"
   viewBox="0 0 111.125 111.12501"
   version="1.1"
   id="svg8"
   inkscape:version="1.0.2-2 (e86c870879, 2021-01-15)"
   sodipodi:docname="Hiragana letter Wo.svg">
  <defs
     id="defs2" />
  <sodipodi:namedview
     id="base"
     pagecolor="#ffffff"
     bordercolor="#666666"
     borderopacity="1.0"
     inkscape:pageopacity="0.0"
     inkscape:pageshadow="2"
     inkscape:zoom="0.98994949"
     inkscape:cx="345.76714"
     inkscape:cy="230.41447"
     inkscape:document-units="px"
     inkscape:current-layer="layer1"
     showgrid="false"
     units="px"
     showguides="true"
     inkscape:guide-bbox="true"
     inkscape:snap-center="true"
     inkscape:snap-object-midpoints="false"
     inkscape:window-width="1366"
     inkscape:window-height="705"
     inkscape:window-x="-8"
     inkscape:window-y="-8"
     inkscape:window-maximized="1"
     inkscape:document-rotation="0"
     inkscape:snap-bbox="true"
     inkscape:bbox-paths="true"
     inkscape:bbox-nodes="true" />
  <metadata
     id="metadata5">
    <rdf:RDF>
      <cc:Work
         rdf:about="">
        <dc:format>image/svg+xml</dc:format>
        <dc:type
           rdf:resource="http://purl.org/dc/dcmitype/StillImage" />
        <dc:title />
      </cc:Work>
    </rdf:RDF>
  </metadata>
  <g
     inkscape:label="Layer 1"
     inkscape:groupmode="layer"
     id="layer1"
     transform="translate(0,-185.87499)">
    <path
       d="m 80.486174,226.14463 c 2.010827,0.9525 4.127487,2.22249 5.185817,3.59832 1.481662,1.69333 1.269996,2.64583 -0.529165,3.59832 -6.34998,3.38666 -17.144946,7.72581 -25.717419,12.38247 -1.05833,-7.93748 -5.079984,-12.4883 -11.747463,-12.4883 -4.23332,0 -8.254974,1.905 -11.64163,3.59832 -0.740831,0.42334 -1.05833,-0.10583 -0.634998,-0.63499 4.656652,-5.92665 7.619976,-10.5833 10.159968,-14.92246 10.689133,-2.11666 21.1666,-5.71498 25.505753,-7.83164 2.010827,-0.9525 2.963324,-1.90499 2.963324,-3.28082 0,-2.01083 -2.222493,-2.85749 -4.550819,-2.85749 -1.587495,0 -2.328326,0.95249 -6.773312,2.96332 -3.280823,1.37583 -8.360807,3.17499 -13.75829,4.55082 1.269996,-2.64583 2.645825,-5.29165 3.386656,-6.98498 1.164163,-2.32832 2.010827,-3.06916 2.010827,-4.55082 0,-2.53999 -6.879145,-4.33915 -10.159968,-4.33915 -1.693328,-0.10583 -3.915821,0.52916 -6.032481,1.05833 v 2.01083 c 2.434159,0.3175 4.656652,0.84666 5.926648,1.48166 2.11666,0.84666 2.434159,1.58749 1.904994,3.49249 -0.529165,2.64582 -1.799161,5.82081 -3.492489,9.3133 -3.280823,0.635 -6.561646,1.05833 -9.419137,1.05833 -7.831642,0 -9.630803,-2.22249 -13.864123,-6.66748 l -2.222493,1.37583 c 4.23332,8.36081 6.032481,10.68913 14.710787,10.68913 2.434159,0 4.974151,-0.21166 7.619976,-0.52916 -4.021654,6.77331 -9.313304,13.86412 -14.81662,19.36744 -4.762485,5.07998 -8.678306,7.72581 -8.678306,10.5833 0,2.64582 1.481662,4.23332 3.598322,4.23332 2.539992,-0.10583 5.503316,-5.07999 9.207471,-9.10164 4.444986,-4.65665 11.429964,-10.5833 17.356612,-10.5833 5.503316,0 7.514143,3.28082 7.937475,12.27663 -12.382461,7.83164 -22.013264,16.29828 -22.013264,24.65909 0,8.3608 6.455813,14.49912 26.140751,14.49912 8.995805,0 20.214103,-1.905 23.706592,-2.85749 3.386656,-0.9525 3.915821,-2.32833 3.915821,-3.91582 0,-2.01083 -1.904994,-3.28083 -5.609149,-3.28083 -5.079984,0 -11.218298,3.28083 -26.881582,3.28083 -10.054135,0 -16.827447,-2.54 -16.827447,-8.46664 0,-6.24415 7.40831,-13.01746 17.674111,-18.83828 -0.105833,5.71498 -0.529165,11.42997 -0.529165,13.96996 0,2.85749 1.693328,4.02165 3.492489,4.02165 2.11666,0 3.280823,-1.58749 3.280823,-4.12748 0,-3.38666 0,-11.11247 -0.317499,-17.14495 9.630803,-4.86832 22.013264,-9.52497 30.162405,-11.95913 4.127487,-1.27 5.185817,-1.58749 5.185817,-3.49249 0,-2.96332 -3.069157,-6.45581 -5.714982,-8.25497 -1.799161,-1.37583 -4.021654,-2.11666 -7.831642,-2.85749 z"
       style="font-style:normal;font-variant:normal;font-weight:normal;font-stretch:normal;font-size:105.833px;line-height:100%;font-family:'Noto Serif CJK JP';-inkscape-font-specification:'Noto Serif CJK JP';text-align:center;letter-spacing:0px;word-spacing:0px;text-anchor:middle;fill:#000000;fill-opacity:1;stroke:none;stroke-width:0.264583px;stroke-linecap:butt;stroke-linejoin:miter;stroke-opacity:1"
       id="path9" />
  </g>
</svg>
