<?xml version="1.0" encoding="UTF-8" standalone="no"?>
<svg
   xmlns:dc="http://purl.org/dc/elements/1.1/"
   xmlns:cc="http://creativecommons.org/ns#"
   xmlns:rdf="http://www.w3.org/1999/02/22-rdf-syntax-ns#"
   xmlns:svg="http://www.w3.org/2000/svg"
   xmlns="http://www.w3.org/2000/svg"
   xmlns:sodipodi="http://sodipodi.sourceforge.net/DTD/sodipodi-0.dtd"
   xmlns:inkscape="http://www.inkscape.org/namespaces/inkscape"
   width="420"
   height="420"
   viewBox="0 0 111.125 111.12501"
   version="1.1"
   id="svg8"
   inkscape:version="1.0.2-2 (e86c870879, 2021-01-15)"
   sodipodi:docname="Hiragana letter Mi.svg">
  <defs
     id="defs2" />
  <sodipodi:namedview
     id="base"
     pagecolor="#ffffff"
     bordercolor="#666666"
     borderopacity="1.0"
     inkscape:pageopacity="0.0"
     inkscape:pageshadow="2"
     inkscape:zoom="0.98994949"
     inkscape:cx="345.76714"
     inkscape:cy="230.41447"
     inkscape:document-units="px"
     inkscape:current-layer="layer1"
     showgrid="false"
     units="px"
     showguides="true"
     inkscape:guide-bbox="true"
     inkscape:snap-center="true"
     inkscape:snap-object-midpoints="false"
     inkscape:window-width="1366"
     inkscape:window-height="705"
     inkscape:window-x="-8"
     inkscape:window-y="-8"
     inkscape:window-maximized="1"
     inkscape:document-rotation="0"
     inkscape:snap-bbox="true"
     inkscape:bbox-paths="true"
     inkscape:bbox-nodes="true" />
  <metadata
     id="metadata5">
    <rdf:RDF>
      <cc:Work
         rdf:about="">
        <dc:format>image/svg+xml</dc:format>
        <dc:type
           rdf:resource="http://purl.org/dc/dcmitype/StillImage" />
        <dc:title />
      </cc:Work>
    </rdf:RDF>
  </metadata>
  <g
     inkscape:label="Layer 1"
     inkscape:groupmode="layer"
     id="layer1"
     transform="translate(0,-185.87499)">
    <path
       d="m 25.51869,266.36117 c -2.328326,3.17499 -3.809988,4.65665 -6.561646,4.65665 -2.857491,0 -4.974151,-4.76248 -3.809988,-9.3133 1.799161,-6.77331 10.477467,-12.91163 21.801598,-14.60496 -4.021654,7.19665 -8.889972,15.87495 -11.429964,19.26161 z m 50.059009,-30.90324 c 1.693328,0.42334 2.857491,0.84667 4.021654,1.48167 1.375829,0.84666 1.693328,1.48166 1.693328,3.28082 0.211666,2.32833 0,5.82081 -0.952497,9.84247 -8.254974,-3.91582 -20.425769,-7.83164 -34.289892,-7.83164 h -0.529165 l 0.211666,-0.42334 c 4.339153,-7.61997 13.123292,-20.95493 16.509948,-24.97658 2.328326,-2.85749 6.138314,-3.91582 6.138314,-6.13832 0,-2.43416 -6.032481,-6.66748 -8.889972,-6.66748 -1.693328,0 -2.222493,1.69333 -5.926648,2.85749 -3.809988,1.16417 -14.393288,4.23332 -18.732441,4.23332 -3.069157,0 -4.127487,-2.64582 -5.714982,-5.50331 l -2.010827,0.635 c 0,1.79916 0.105833,4.23332 0.634998,5.60915 1.164163,3.06915 5.503316,6.77331 8.572473,6.77331 1.904994,0 3.386656,-1.69333 5.185817,-2.43416 4.021654,-1.69333 10.5833,-4.23332 14.393288,-5.50332 1.375829,-0.42333 1.904994,0.10584 1.05833,1.79916 -2.539992,4.86832 -12.064962,20.10827 -17.039113,29.20991 l -0.529165,0.9525 c -13.546624,1.90499 -26.034918,9.20747 -28.257411,19.47327 -1.4816627,7.51414 1.799161,16.50995 7.725809,16.50995 4.868318,0 7.937475,-2.64583 11.218298,-7.40831 3.069157,-4.23332 8.46664,-15.76912 13.123292,-24.65909 h 0.211666 c 16.721614,0 27.51658,5.29165 34.92489,10.05413 -5.29165,14.07579 -17.356612,24.76493 -34.184059,29.95074 l 1.587495,2.43416 c 19.261606,-4.33915 32.279065,-13.96995 38.205713,-28.57491 7.937475,5.71498 10.794966,10.15997 13.440791,10.15997 2.010827,0 2.963323,-1.27 2.963323,-2.96332 0.10584,-2.32833 -0.529163,-4.02166 -2.539991,-6.13832 -2.434159,-2.53999 -6.455813,-5.29165 -11.64163,-8.3608 0.846664,-3.70416 1.481662,-7.51415 1.799161,-9.52497 0.317499,-2.43416 0.846664,-4.12749 0.846664,-5.82082 0,-2.01083 -4.23332,-4.55082 -7.514143,-4.97415 -1.799161,-0.21167 -3.915821,0.10583 -5.609149,0.635 z"
       style="font-style:normal;font-variant:normal;font-weight:normal;font-stretch:normal;font-size:105.833px;line-height:100%;font-family:'Noto Serif CJK JP';-inkscape-font-specification:'Noto Serif CJK JP';text-align:center;letter-spacing:0px;word-spacing:0px;text-anchor:middle;fill:#000000;fill-opacity:1;stroke:none;stroke-width:0.264583px;stroke-linecap:butt;stroke-linejoin:miter;stroke-opacity:1"
       id="path9" />
  </g>
</svg>
