<?xml version="1.0" encoding="UTF-8" standalone="no"?>
<svg
   xmlns:dc="http://purl.org/dc/elements/1.1/"
   xmlns:cc="http://creativecommons.org/ns#"
   xmlns:rdf="http://www.w3.org/1999/02/22-rdf-syntax-ns#"
   xmlns:svg="http://www.w3.org/2000/svg"
   xmlns="http://www.w3.org/2000/svg"
   xmlns:sodipodi="http://sodipodi.sourceforge.net/DTD/sodipodi-0.dtd"
   xmlns:inkscape="http://www.inkscape.org/namespaces/inkscape"
   width="420"
   height="420"
   viewBox="0 0 111.125 111.12501"
   version="1.1"
   id="svg8"
   inkscape:version="1.0.2-2 (e86c870879, 2021-01-15)"
   sodipodi:docname="Hiragana letter Ho.svg">
  <defs
     id="defs2" />
  <sodipodi:namedview
     id="base"
     pagecolor="#ffffff"
     bordercolor="#666666"
     borderopacity="1.0"
     inkscape:pageopacity="0.0"
     inkscape:pageshadow="2"
     inkscape:zoom="0.98994949"
     inkscape:cx="345.76714"
     inkscape:cy="230.41447"
     inkscape:document-units="px"
     inkscape:current-layer="layer1"
     showgrid="false"
     units="px"
     showguides="true"
     inkscape:guide-bbox="true"
     inkscape:snap-center="true"
     inkscape:snap-object-midpoints="false"
     inkscape:window-width="1366"
     inkscape:window-height="705"
     inkscape:window-x="-8"
     inkscape:window-y="-8"
     inkscape:window-maximized="1"
     inkscape:document-rotation="0"
     inkscape:snap-bbox="true"
     inkscape:bbox-paths="true"
     inkscape:bbox-nodes="true" />
  <metadata
     id="metadata5">
    <rdf:RDF>
      <cc:Work
         rdf:about="">
        <dc:format>image/svg+xml</dc:format>
        <dc:type
           rdf:resource="http://purl.org/dc/dcmitype/StillImage" />
        <dc:title />
      </cc:Work>
    </rdf:RDF>
  </metadata>
  <g
     inkscape:label="Layer 1"
     inkscape:groupmode="layer"
     id="layer1"
     transform="translate(0,-185.87499)">
    <path
       d="m 13.652635,202.86137 c 2.751658,3.28082 6.138314,7.51414 6.138314,11.5358 0,3.70415 -1.904994,8.78414 -2.857491,12.48829 -1.587495,5.60915 -4.974151,17.67411 -4.974151,30.69157 0,11.74746 3.280823,21.06077 6.032481,25.39992 1.693328,2.64583 3.280823,4.02166 5.079984,4.02166 1.904994,0 2.857491,-1.27 2.857491,-3.06916 0,-2.32833 -1.164163,-5.39748 -1.164163,-8.78414 0,-1.69333 0.634998,-4.23332 1.587495,-7.51414 1.375829,-4.33916 5.820815,-16.29829 7.831642,-22.1191 l -2.434159,-1.16416 c -2.434159,5.50331 -8.360807,19.68493 -10.477467,23.07159 -0.846664,1.37583 -1.799161,1.27 -2.434159,-0.21167 -1.269996,-2.22249 -2.222493,-5.29165 -2.222493,-11.00663 0,-10.2658 4.444986,-22.85993 6.561646,-28.46907 2.645825,-6.77332 4.762485,-8.78414 4.762485,-11.42997 0,-3.49249 -3.809988,-8.88997 -6.773312,-11.42996 -1.904994,-1.48166 -3.809988,-2.53999 -5.820815,-3.38666 z M 71.966618,267.737 c 0,7.19664 -3.809988,11.00663 -12.911626,11.00663 -7.619976,0 -11.535797,-2.01083 -11.535797,-6.24415 0,-5.60914 8.360807,-7.83164 14.922453,-7.83164 3.17499,0 6.34998,0.42333 9.52497,1.27 z M 47.836694,208.78802 c 4.23332,5.82081 8.360807,7.83164 15.028286,7.83164 1.164163,0 2.539992,-0.10583 4.021654,-0.21167 1.799161,0.84667 3.704155,2.2225 3.809988,4.76249 0.211666,2.64582 0.105833,8.14914 0.105833,13.01746 -2.645825,0.42333 -6.032481,0.9525 -9.736636,0.9525 -7.514143,0 -10.794966,-2.43416 -15.134119,-5.60915 l -1.587495,1.58749 c 4.656652,7.09081 9.948302,9.41914 17.039113,9.41914 3.280823,0 6.244147,-0.21167 9.52497,-0.635 0.105833,6.24415 0.634998,14.49912 0.846664,20.8491 -2.328326,-0.3175 -4.762485,-0.52916 -7.40831,-0.52916 -11.429964,0 -20.637435,4.86831 -20.637435,12.69996 0,7.83164 7.090811,11.64163 16.615781,11.64163 10.900799,0 17.779944,-4.44499 17.779944,-13.54663 0,-0.74083 0,-1.79916 -0.105833,-2.85749 4.868318,2.22249 9.630803,5.60915 14.287455,10.2658 1.481662,1.48166 2.751658,2.75166 4.339153,2.75166 1.693328,0 2.539991,-1.37583 2.539991,-3.17499 0,-2.43416 -1.269995,-4.44499 -3.809987,-6.66748 -3.280823,-2.75166 -9.419137,-6.87914 -17.674111,-9.3133 -0.529165,-6.87915 -1.269996,-15.87495 -1.481662,-22.96576 5.926648,-1.05833 12.488294,-2.75166 16.827447,-4.55082 2.645825,-0.9525 3.598322,-2.2225 3.598322,-3.59832 0,-2.43416 -3.704155,-3.28083 -5.397483,-3.28083 -0.529165,0 -1.375829,0.74083 -4.23332,2.01083 -2.645825,1.05833 -6.455813,2.32833 -10.794966,3.49249 0.105833,-4.97415 0.423332,-9.20747 1.375829,-12.38246 0.529165,-1.905 0.317499,-2.85749 -0.846664,-3.70416 -0.952497,-0.635 -2.11666,-1.16416 -3.280823,-1.58749 6.879145,-1.16417 14.181622,-2.96333 17.039113,-4.23332 1.269996,-0.635 2.010827,-1.48166 1.904994,-2.75166 0,-2.22249 -2.328326,-3.06916 -5.079984,-3.06916 -1.05833,0 -2.328326,0.9525 -5.820815,2.2225 -2.857491,0.95249 -12.276628,3.70415 -20.002437,3.70415 -4.762485,0 -7.831642,-1.16416 -12.170795,-4.02165 z"
       style="font-style:normal;font-variant:normal;font-weight:normal;font-stretch:normal;font-size:105.833px;line-height:100%;font-family:'Noto Serif CJK JP';-inkscape-font-specification:'Noto Serif CJK JP';text-align:center;letter-spacing:0px;word-spacing:0px;text-anchor:middle;fill:#000000;fill-opacity:1;stroke:none;stroke-width:0.264583px;stroke-linecap:butt;stroke-linejoin:miter;stroke-opacity:1"
       id="path9" />
  </g>
</svg>
