<?xml version="1.0" encoding="UTF-8" standalone="no"?>
<svg
   xmlns:dc="http://purl.org/dc/elements/1.1/"
   xmlns:cc="http://creativecommons.org/ns#"
   xmlns:rdf="http://www.w3.org/1999/02/22-rdf-syntax-ns#"
   xmlns:svg="http://www.w3.org/2000/svg"
   xmlns="http://www.w3.org/2000/svg"
   xmlns:sodipodi="http://sodipodi.sourceforge.net/DTD/sodipodi-0.dtd"
   xmlns:inkscape="http://www.inkscape.org/namespaces/inkscape"
   width="420"
   height="420"
   viewBox="0 0 111.125 111.12501"
   version="1.1"
   id="svg8"
   inkscape:version="1.0.2-2 (e86c870879, 2021-01-15)"
   sodipodi:docname="Hiragana letter Se.svg">
  <defs
     id="defs2" />
  <sodipodi:namedview
     id="base"
     pagecolor="#ffffff"
     bordercolor="#666666"
     borderopacity="1.0"
     inkscape:pageopacity="0.0"
     inkscape:pageshadow="2"
     inkscape:zoom="0.98994949"
     inkscape:cx="345.76714"
     inkscape:cy="230.41447"
     inkscape:document-units="px"
     inkscape:current-layer="layer1"
     showgrid="false"
     units="px"
     showguides="true"
     inkscape:guide-bbox="true"
     inkscape:snap-center="true"
     inkscape:snap-object-midpoints="false"
     inkscape:window-width="1366"
     inkscape:window-height="705"
     inkscape:window-x="-8"
     inkscape:window-y="-8"
     inkscape:window-maximized="1"
     inkscape:document-rotation="0"
     inkscape:snap-bbox="true"
     inkscape:bbox-paths="true"
     inkscape:bbox-nodes="true" />
  <metadata
     id="metadata5">
    <rdf:RDF>
      <cc:Work
         rdf:about="">
        <dc:format>image/svg+xml</dc:format>
        <dc:type
           rdf:resource="http://purl.org/dc/dcmitype/StillImage" />
        <dc:title />
      </cc:Work>
    </rdf:RDF>
  </metadata>
  <g
     inkscape:label="Layer 1"
     inkscape:groupmode="layer"
     id="layer1"
     transform="translate(0,-185.87499)">
    <path
       d="m 63.238704,205.61303 c 2.539992,0.21166 4.656652,0.42333 6.34998,0.84666 1.799161,0.42333 2.645825,1.27 2.751658,2.96333 0.317499,4.23332 0.317499,12.59412 0.211666,19.04994 -9.630803,2.01082 -22.965761,5.18581 -29.950739,6.87914 0.211666,-4.86832 0.317499,-9.10164 0.634998,-11.64163 0.317499,-4.12749 2.010827,-4.55082 2.010827,-6.45581 0,-2.75166 -6.773312,-6.24415 -10.689133,-6.24415 -2.751658,0 -5.079984,0.74083 -7.090811,1.37583 l 0.105833,2.22249 c 2.010827,0.21167 4.550819,0.3175 6.138314,0.9525 1.693328,0.635 2.328326,1.27 2.539992,4.33915 0.317499,3.06916 0.317499,9.63081 0.211666,16.93328 -6.984978,1.79916 -18.097443,4.65666 -20.531602,4.65666 -2.539992,0 -5.185818,-3.06916 -6.879146,-5.92665 l -1.587495,0.635 c 0,2.01082 -0.105833,4.02165 0.529165,5.29165 1.587495,3.91582 5.60915,7.61997 8.572474,7.61997 2.857491,0 7.196644,-2.85749 19.896604,-6.77331 0.105833,10.05413 0,20.42577 0.317499,26.24658 0.529165,11.95913 8.784139,15.23996 24.024091,15.23996 11.006632,0 20.319936,-0.74084 24.553256,-1.69333 3.17499,-0.74083 4.444986,-1.5875 4.444986,-3.70416 0,-2.53999 -2.857491,-3.80999 -6.34998,-3.80999 -3.386656,0 -11.324131,2.64583 -24.34159,2.64583 -14.287455,0 -16.509948,-1.37583 -16.93328,-12.69996 -0.105833,-4.86832 0.105833,-14.81662 0.211666,-24.02409 7.514143,-2.01083 19.684938,-4.86832 30.056572,-6.77331 -0.211666,5.92664 -0.846664,13.65245 -1.693328,17.03911 -0.740831,2.11666 -1.799161,2.53999 -3.386656,2.53999 -1.799161,0 -6.984978,-1.37583 -11.64163,-2.75166 l -0.740831,2.32833 c 4.23332,1.79916 8.889972,3.59832 10.477467,6.77331 1.164163,2.01083 2.010827,2.32833 3.492489,2.32833 3.809988,0 6.138314,-2.96333 7.196644,-7.83164 1.164163,-4.76249 1.799161,-13.86413 2.11666,-21.37827 2.010827,-0.3175 3.809988,-0.52917 5.503316,-0.74083 7.40831,-0.635 11.218298,0 15.345785,0 2.963329,0 4.550819,-0.52917 4.550819,-2.64583 0,-3.28082 -3.809988,-4.86831 -8.149141,-4.86831 -2.328326,0 -8.889972,1.16416 -17.039113,2.75165 0.211666,-4.97415 0.317499,-9.20747 0.529165,-12.48829 0.105833,-3.70416 2.11666,-4.33915 2.11666,-6.13831 0,-2.8575 -6.244147,-6.87915 -11.324131,-6.87915 -2.11666,0 -4.23332,0.84666 -6.667479,1.69333 z"
       style="font-style:normal;font-variant:normal;font-weight:normal;font-stretch:normal;font-size:105.833px;line-height:100%;font-family:'Noto Serif CJK JP';-inkscape-font-specification:'Noto Serif CJK JP';text-align:center;letter-spacing:0px;word-spacing:0px;text-anchor:middle;fill:#000000;fill-opacity:1;stroke:none;stroke-width:0.264583px;stroke-linecap:butt;stroke-linejoin:miter;stroke-opacity:1"
       id="path9" />
  </g>
</svg>
