<?xml version="1.0" encoding="UTF-8" standalone="no"?>
<svg
   xmlns:dc="http://purl.org/dc/elements/1.1/"
   xmlns:cc="http://creativecommons.org/ns#"
   xmlns:rdf="http://www.w3.org/1999/02/22-rdf-syntax-ns#"
   xmlns:svg="http://www.w3.org/2000/svg"
   xmlns="http://www.w3.org/2000/svg"
   xmlns:sodipodi="http://sodipodi.sourceforge.net/DTD/sodipodi-0.dtd"
   xmlns:inkscape="http://www.inkscape.org/namespaces/inkscape"
   width="420"
   height="420"
   viewBox="0 0 111.125 111.12501"
   version="1.1"
   id="svg8"
   inkscape:version="1.0.2-2 (e86c870879, 2021-01-15)"
   sodipodi:docname="Hiragana letter Ta.svg">
  <defs
     id="defs2" />
  <sodipodi:namedview
     id="base"
     pagecolor="#ffffff"
     bordercolor="#666666"
     borderopacity="1.0"
     inkscape:pageopacity="0.0"
     inkscape:pageshadow="2"
     inkscape:zoom="0.98994949"
     inkscape:cx="345.76714"
     inkscape:cy="230.41447"
     inkscape:document-units="px"
     inkscape:current-layer="layer1"
     showgrid="false"
     units="px"
     showguides="true"
     inkscape:guide-bbox="true"
     inkscape:snap-center="true"
     inkscape:snap-object-midpoints="false"
     inkscape:window-width="1366"
     inkscape:window-height="705"
     inkscape:window-x="-8"
     inkscape:window-y="-8"
     inkscape:window-maximized="1"
     inkscape:document-rotation="0"
     inkscape:snap-bbox="true"
     inkscape:bbox-paths="true"
     inkscape:bbox-nodes="true" />
  <metadata
     id="metadata5">
    <rdf:RDF>
      <cc:Work
         rdf:about="">
        <dc:format>image/svg+xml</dc:format>
        <dc:type
           rdf:resource="http://purl.org/dc/dcmitype/StillImage" />
        <dc:title />
      </cc:Work>
    </rdf:RDF>
  </metadata>
  <g
     inkscape:label="Layer 1"
     inkscape:groupmode="layer"
     id="layer1"
     transform="translate(0,-185.87499)">
    <path
       d="m 60.219154,237.57459 c 4.656652,-1.05833 9.52497,-1.69332 14.181622,-1.69332 3.17499,0 6.773312,0.3175 9.313304,1.26999 0.952497,0.3175 1.269996,0.84667 0.423332,1.48166 -1.375829,1.37583 -7.514143,5.39749 -11.112465,7.72581 l 1.375829,1.905 c 3.598322,-1.79916 8.572473,-4.33916 11.853296,-5.50332 2.751658,-1.16416 4.339153,-1.48166 6.244147,-1.69333 2.539992,-0.21166 4.339153,-0.74083 4.339153,-2.64582 0,-1.79916 -1.375829,-3.38666 -3.809988,-4.65665 -2.539992,-1.16417 -7.302477,-2.54 -14.287455,-2.54 -6.984978,0 -14.181622,1.79917 -19.155773,3.80999 z M 34.713401,203.07304 c 2.222493,0.42333 4.550819,1.05833 6.667479,1.79916 1.904994,0.95249 2.434159,1.90499 2.222493,4.23332 -0.317499,3.28082 -1.269996,8.25497 -2.645825,13.75829 -4.021654,0.95249 -8.784139,1.69333 -13.75829,1.69333 -5.185817,0 -8.360807,-2.01083 -12.911626,-6.03249 l -1.799161,1.37583 c 3.492489,8.04331 8.572473,10.37164 14.710787,10.37164 3.915821,0 8.360807,-0.52917 12.170795,-1.27 -1.269996,4.44499 -2.645825,8.88997 -4.021654,12.80579 -5.185817,14.81662 -11.112465,25.39992 -16.509948,33.44323 -1.587495,2.85749 -2.539992,3.80999 -2.539992,6.13832 0,2.43416 1.269996,4.33915 3.069157,4.33915 2.11666,0 3.17499,-0.9525 4.656652,-3.38666 4.550819,-7.40831 11.324131,-24.44742 16.298282,-38.73487 1.904994,-5.07999 3.704155,-10.79497 5.185817,-15.98079 7.619976,-1.90499 15.87495,-4.86832 18.309109,-5.92665 3.915821,-1.69332 5.079984,-2.75165 5.079984,-4.76248 0,-1.90499 -2.751658,-2.96332 -4.550819,-2.96332 -0.846664,0 -2.010827,0.63499 -3.598322,1.48166 -3.280823,1.69333 -7.725809,3.70415 -13.334958,5.60915 0.846664,-2.96333 1.481662,-5.60915 2.010827,-7.51415 1.269996,-4.02165 2.751658,-6.66748 2.751658,-8.46664 -0.105833,-2.43416 -6.773312,-4.97415 -10.5833,-5.18581 -2.539992,-0.10584 -4.444986,0.21166 -6.667479,0.74083 z m 16.298282,57.04398 c 0.105833,3.70416 0.529165,7.72581 2.328326,11.74747 3.280823,9.3133 13.017459,13.01746 25.294087,13.01746 6.138314,0 10.900799,-0.635 14.181622,-1.37583 3.069157,-0.635 5.820815,-1.79916 5.820815,-3.91582 0,-2.43416 -2.751658,-3.59833 -5.185817,-3.59833 -3.069157,0 -6.455813,2.01083 -17.039113,2.01083 -9.101638,0 -15.557451,-2.43416 -19.261606,-8.14914 -2.010827,-3.17499 -2.963324,-6.98498 -3.598322,-10.05414 z"
       style="font-style:normal;font-variant:normal;font-weight:normal;font-stretch:normal;font-size:105.833px;line-height:100%;font-family:'Noto Serif CJK JP';-inkscape-font-specification:'Noto Serif CJK JP';text-align:center;letter-spacing:0px;word-spacing:0px;text-anchor:middle;fill:#000000;fill-opacity:1;stroke:none;stroke-width:0.264583px;stroke-linecap:butt;stroke-linejoin:miter;stroke-opacity:1"
       id="path9" />
  </g>
</svg>
