<?xml version="1.0" encoding="UTF-8" standalone="no"?>
<svg
   xmlns:dc="http://purl.org/dc/elements/1.1/"
   xmlns:cc="http://creativecommons.org/ns#"
   xmlns:rdf="http://www.w3.org/1999/02/22-rdf-syntax-ns#"
   xmlns:svg="http://www.w3.org/2000/svg"
   xmlns="http://www.w3.org/2000/svg"
   xmlns:sodipodi="http://sodipodi.sourceforge.net/DTD/sodipodi-0.dtd"
   xmlns:inkscape="http://www.inkscape.org/namespaces/inkscape"
   width="420"
   height="420"
   viewBox="0 0 111.125 111.12501"
   version="1.1"
   id="svg8"
   inkscape:version="1.0.2-2 (e86c870879, 2021-01-15)"
   sodipodi:docname="Hiragana letter We.svg">
  <defs
     id="defs2" />
  <sodipodi:namedview
     id="base"
     pagecolor="#ffffff"
     bordercolor="#666666"
     borderopacity="1.0"
     inkscape:pageopacity="0.0"
     inkscape:pageshadow="2"
     inkscape:zoom="0.98994949"
     inkscape:cx="345.76714"
     inkscape:cy="230.41447"
     inkscape:document-units="px"
     inkscape:current-layer="layer1"
     showgrid="false"
     units="px"
     showguides="true"
     inkscape:guide-bbox="true"
     inkscape:snap-center="true"
     inkscape:snap-object-midpoints="false"
     inkscape:window-width="1366"
     inkscape:window-height="705"
     inkscape:window-x="-8"
     inkscape:window-y="-8"
     inkscape:window-maximized="1"
     inkscape:document-rotation="0"
     inkscape:snap-bbox="true"
     inkscape:bbox-paths="true"
     inkscape:bbox-nodes="true" />
  <metadata
     id="metadata5">
    <rdf:RDF>
      <cc:Work
         rdf:about="">
        <dc:format>image/svg+xml</dc:format>
        <dc:type
           rdf:resource="http://purl.org/dc/dcmitype/StillImage" />
        <dc:title />
      </cc:Work>
    </rdf:RDF>
  </metadata>
  <g
     inkscape:label="Layer 1"
     inkscape:groupmode="layer"
     id="layer1"
     transform="translate(0,-185.87499)">
    <path
       d="m 43.603373,246.8879 c 0,-2.85749 2.539992,-4.76249 5.609149,-4.76249 3.915821,0 5.079984,1.79916 5.079984,4.02166 0,2.22249 -1.164163,3.49249 -4.339153,5.92665 -4.021654,-0.84667 -6.34998,-2.54 -6.34998,-5.18582 z M 33.443405,204.34303 c -0.211666,1.69333 -0.211666,3.70416 0.105833,4.97415 0.846664,3.06916 4.974151,6.87915 7.831642,6.87915 1.693328,0 3.386656,-1.905 4.974151,-2.64583 4.444986,-2.11666 10.794966,-4.55082 15.134119,-5.50331 1.481662,-0.3175 1.799161,0.3175 0.846664,1.37583 -5.503316,5.60915 -23.706592,21.4841 -31.855733,27.41074 -4.868318,3.38666 -6.138314,4.55082 -6.138314,6.56165 0,2.85749 1.375829,3.70415 2.645825,3.70415 1.799161,0 3.069157,-1.16416 4.021654,-2.32832 5.714982,-5.92665 10.689133,-10.68913 14.922453,-13.33496 5.079984,-3.28082 11.218298,-4.97415 15.980783,-4.97415 10.477467,0 15.87495,4.44499 15.87495,11.5358 0,7.72581 -7.725809,14.28745 -20.425769,14.60495 1.693328,-1.48166 2.751658,-3.06916 2.645825,-5.60915 0,-4.76248 -3.915821,-7.93747 -9.842469,-7.93747 -5.820815,0 -10.5833,4.02165 -10.5833,8.46664 0,3.80998 2.434159,6.34998 6.032481,7.93747 -4.339153,3.38666 -8.995805,6.98498 -14.393288,11.2183 -5.29165,4.02165 -12.488294,9.3133 -15.028286,11.32413 -3.069157,2.64583 -3.492489,4.55082 -3.492489,5.82082 0,2.53999 1.587495,4.23332 3.069157,4.23332 1.799161,0 2.857491,-1.37583 3.704155,-2.43416 1.799161,-2.75166 4.339153,-6.03248 7.514143,-8.88998 3.17499,-2.75165 6.667479,-4.86831 10.689133,-4.86831 4.656652,0 6.879145,2.53999 8.678306,5.39748 2.222493,3.38666 1.375829,4.97415 2.963324,6.45581 1.375829,1.27 3.598322,2.53999 5.079984,2.53999 1.799161,0 2.222493,-2.11666 3.704155,-5.07998 2.857491,-6.24415 9.52497,-15.76912 17.462445,-15.76912 6.773312,0 12.805793,5.07999 14.499121,10.05414 0.634998,2.32832 0.211666,3.38665 -1.269996,4.12749 -1.904994,1.26999 -5.397483,2.64582 -9.52497,4.12748 l 0.634998,2.01083 c 4.127487,-0.74083 7.196644,-1.5875 9.101638,-1.5875 3.280823,0.10584 3.915821,1.27 6.032481,1.27 2.328326,0 3.386656,-1.58749 3.386656,-4.55082 0,-8.88997 -10.371634,-18.41494 -22.013264,-18.41494 -9.419137,0 -17.885777,8.88997 -23.389093,15.13412 -5.29165,-6.87915 -10.265801,-9.9483 -19.04994,-7.72581 3.069157,-2.75166 9.630803,-8.25497 16.827447,-12.91163 1.904994,0.3175 3.915821,0.42334 5.926648,0.42334 13.969956,0 27.410747,-6.13832 27.410747,-18.30911 0,-10.9008 -9.736636,-15.55745 -19.790771,-15.55745 -4.021654,0 -9.207471,1.05833 -12.488294,2.11666 -1.269996,0.52916 -1.587495,0 -0.529165,-0.84667 3.492489,-3.28082 10.265801,-8.04331 16.827447,-12.59413 1.693328,-1.05833 4.762485,-1.58749 4.762485,-3.38665 0,-2.32833 -5.926648,-6.66748 -9.101638,-6.66748 -1.481662,0 -1.904994,1.48166 -4.974151,2.43416 -3.809988,1.26999 -15.769117,4.76248 -18.520775,4.76248 -2.645825,0 -3.915821,-3.59832 -4.868318,-5.29165 z"
       style="font-style:normal;font-variant:normal;font-weight:normal;font-stretch:normal;font-size:105.833px;line-height:100%;font-family:'Noto Serif CJK JP';-inkscape-font-specification:'Noto Serif CJK JP';text-align:center;letter-spacing:0px;word-spacing:0px;text-anchor:middle;fill:#000000;fill-opacity:1;stroke:none;stroke-width:0.264583px;stroke-linecap:butt;stroke-linejoin:miter;stroke-opacity:1"
       id="path9" />
  </g>
</svg>
