<?xml version="1.0" encoding="UTF-8" standalone="no"?>
<svg
   xmlns:dc="http://purl.org/dc/elements/1.1/"
   xmlns:cc="http://creativecommons.org/ns#"
   xmlns:rdf="http://www.w3.org/1999/02/22-rdf-syntax-ns#"
   xmlns:svg="http://www.w3.org/2000/svg"
   xmlns="http://www.w3.org/2000/svg"
   xmlns:sodipodi="http://sodipodi.sourceforge.net/DTD/sodipodi-0.dtd"
   xmlns:inkscape="http://www.inkscape.org/namespaces/inkscape"
   width="420"
   height="420"
   viewBox="0 0 111.125 111.12501"
   version="1.1"
   id="svg8"
   inkscape:version="1.0.2-2 (e86c870879, 2021-01-15)"
   sodipodi:docname="Hiragana letter Re.svg">
  <defs
     id="defs2" />
  <sodipodi:namedview
     id="base"
     pagecolor="#ffffff"
     bordercolor="#666666"
     borderopacity="1.0"
     inkscape:pageopacity="0.0"
     inkscape:pageshadow="2"
     inkscape:zoom="0.98994949"
     inkscape:cx="345.76714"
     inkscape:cy="230.41447"
     inkscape:document-units="px"
     inkscape:current-layer="layer1"
     showgrid="false"
     units="px"
     showguides="true"
     inkscape:guide-bbox="true"
     inkscape:snap-center="true"
     inkscape:snap-object-midpoints="false"
     inkscape:window-width="1366"
     inkscape:window-height="705"
     inkscape:window-x="-8"
     inkscape:window-y="-8"
     inkscape:window-maximized="1"
     inkscape:document-rotation="0"
     inkscape:snap-bbox="true"
     inkscape:bbox-paths="true"
     inkscape:bbox-nodes="true" />
  <metadata
     id="metadata5">
    <rdf:RDF>
      <cc:Work
         rdf:about="">
        <dc:format>image/svg+xml</dc:format>
        <dc:type
           rdf:resource="http://purl.org/dc/dcmitype/StillImage" />
        <dc:title />
      </cc:Work>
    </rdf:RDF>
  </metadata>
  <g
     inkscape:label="Layer 1"
     inkscape:groupmode="layer"
     id="layer1"
     transform="translate(0,-185.87499)">
    <path
       d="m 31.167998,271.65282 c 0,1.69333 -0.529165,1.79916 -1.481662,0.74083 -1.481662,-1.79916 -5.29165,-6.87914 -8.254974,-11.00663 3.280823,-4.76249 6.773312,-9.6308 9.630803,-14.07579 -0.317499,9.52497 0.211666,19.26161 0.105833,24.34159 z m 71.754772,-7.40831 c -6.138312,5.60915 -11.218296,8.14914 -18.203274,8.14914 -5.079984,0 -7.514143,-2.32832 -7.514143,-8.04331 0,-10.79496 4.550819,-25.92908 4.550819,-34.18406 0,-9.84246 -4.550819,-14.28745 -11.853296,-14.28745 -10.794966,0 -23.28326,9.6308 -33.337395,18.73244 1.164163,-1.69333 2.222493,-3.17499 3.386656,-4.44499 1.269996,-1.69332 2.434159,-2.53999 2.434159,-3.80998 0,-1.05833 -2.11666,-3.06916 -3.809988,-4.23332 0.846664,-3.49249 1.587495,-6.24415 2.11666,-7.83165 1.164163,-4.23332 2.434159,-5.18581 2.434159,-7.40831 0,-3.06915 -5.397483,-7.7258 -9.736636,-7.7258 -2.434159,0 -4.656652,0.52916 -6.455813,1.16416 l 0.105833,2.11666 c 2.328326,0.42333 4.23332,1.05833 5.609149,1.48166 1.904994,0.74083 2.434159,1.16416 2.434159,3.59832 -0.105833,3.06916 -0.846664,8.57248 -1.693328,15.34579 -4.339153,2.32832 -15.239952,7.51414 -17.885777,7.51414 -1.904994,0 -3.492489,-1.79916 -5.079984,-4.97415 l -1.9049948,0.52916 c -0.105833,1.48167 0,3.17499 0.4233325,4.65666 1.0583303,3.49249 5.6091493,7.51414 8.6783063,7.51414 1.799161,0 2.857491,-2.43416 5.079984,-3.80999 2.645825,-1.48166 6.34998,-3.59832 9.948302,-5.50331 -0.423332,2.85749 -0.634998,5.71498 -0.952497,8.78413 -7.302477,11.32414 -18.838274,25.50576 -23.1774278,30.05658 -1.904994,2.11666 -2.222493,3.38665 -2.222493,5.29165 0,2.11666 1.269996,3.70415 2.7516585,3.70415 1.5874953,0 2.5399923,-1.37583 3.8099883,-3.17499 l 6.879145,-9.6308 c 3.069157,4.65665 6.879145,11.00663 7.831642,13.75829 0.952497,2.32832 1.269996,4.12749 1.799161,6.66748 0.529165,2.43416 1.587495,3.59832 3.492489,3.59832 2.963324,0 4.444986,-4.97415 4.444986,-8.57247 0,-2.32833 -0.317499,-4.55082 -0.529165,-7.19665 -0.634998,-6.34998 -1.693328,-19.04994 -1.05833,-31.22073 10.5833,-11.5358 22.965761,-21.06077 31.961566,-21.06077 5.29165,0 7.196644,3.49249 7.196644,10.15997 0,11.42996 -4.444986,23.70659 -4.444986,35.45405 0,9.31331 5.185817,13.86413 12.69996,13.86413 8.995805,0 17.039109,-6.56165 21.695759,-13.1233 z"
       style="font-style:normal;font-variant:normal;font-weight:normal;font-stretch:normal;font-size:105.833px;line-height:100%;font-family:'Noto Serif CJK JP';-inkscape-font-specification:'Noto Serif CJK JP';text-align:center;letter-spacing:0px;word-spacing:0px;text-anchor:middle;fill:#000000;fill-opacity:1;stroke:none;stroke-width:0.264583px;stroke-linecap:butt;stroke-linejoin:miter;stroke-opacity:1"
       id="path9" />
  </g>
</svg>
