<?xml version="1.0" encoding="UTF-8" standalone="no"?>
<svg
   xmlns:dc="http://purl.org/dc/elements/1.1/"
   xmlns:cc="http://creativecommons.org/ns#"
   xmlns:rdf="http://www.w3.org/1999/02/22-rdf-syntax-ns#"
   xmlns:svg="http://www.w3.org/2000/svg"
   xmlns="http://www.w3.org/2000/svg"
   xmlns:sodipodi="http://sodipodi.sourceforge.net/DTD/sodipodi-0.dtd"
   xmlns:inkscape="http://www.inkscape.org/namespaces/inkscape"
   width="420"
   height="420"
   viewBox="0 0 111.125 111.12501"
   version="1.1"
   id="svg8"
   inkscape:version="1.0.2-2 (e86c870879, 2021-01-15)"
   sodipodi:docname="Hiragana letter Ha.svg">
  <defs
     id="defs2" />
  <sodipodi:namedview
     id="base"
     pagecolor="#ffffff"
     bordercolor="#666666"
     borderopacity="1.0"
     inkscape:pageopacity="0.0"
     inkscape:pageshadow="2"
     inkscape:zoom="0.98994949"
     inkscape:cx="345.76714"
     inkscape:cy="230.41447"
     inkscape:document-units="px"
     inkscape:current-layer="layer1"
     showgrid="false"
     units="px"
     showguides="true"
     inkscape:guide-bbox="true"
     inkscape:snap-center="true"
     inkscape:snap-object-midpoints="false"
     inkscape:window-width="1366"
     inkscape:window-height="705"
     inkscape:window-x="-8"
     inkscape:window-y="-8"
     inkscape:window-maximized="1"
     inkscape:document-rotation="0"
     inkscape:snap-bbox="true"
     inkscape:bbox-paths="true"
     inkscape:bbox-nodes="true" />
  <metadata
     id="metadata5">
    <rdf:RDF>
      <cc:Work
         rdf:about="">
        <dc:format>image/svg+xml</dc:format>
        <dc:type
           rdf:resource="http://purl.org/dc/dcmitype/StillImage" />
        <dc:title />
      </cc:Work>
    </rdf:RDF>
  </metadata>
  <g
     inkscape:label="Layer 1"
     inkscape:groupmode="layer"
     id="layer1"
     transform="translate(0,-185.87499)">
    <path
       d="m 13.970136,204.34303 c 3.704155,4.33916 6.244147,7.72581 6.138314,11.5358 -0.105833,3.49249 -1.375829,7.19664 -2.751658,12.27663 -1.799161,6.34998 -5.079984,16.93328 -5.079984,29.5274 0,10.68914 3.280823,20.53161 6.138314,24.76493 1.587495,2.32832 3.17499,4.02165 5.079984,4.02165 1.904994,0 2.963324,-1.27 2.963324,-3.28082 0,-2.53999 -1.481662,-5.82082 -1.481662,-9.10164 0,-1.69333 0.740831,-3.91582 1.693328,-7.30248 1.375829,-3.80999 5.926648,-16.19245 7.937475,-21.69576 l -2.539992,-1.27 c -2.434159,5.39748 -8.254974,19.57911 -10.477467,23.0716 -0.846664,1.48166 -1.799161,1.26999 -2.434159,0 -1.164163,-2.11666 -2.010827,-5.07999 -2.010827,-10.68914 0,-11.00663 4.339153,-21.90743 6.879145,-27.93991 2.645825,-6.34998 4.127487,-8.25497 4.127487,-10.5833 0,-4.44499 -4.868318,-9.84247 -7.090811,-11.5358 -1.904994,-1.69332 -2.963324,-2.11666 -5.397483,-3.17499 z m 58.20815,60.85398 c 0,8.57247 -2.010827,12.80579 -13.546624,12.80579 -6.34998,0 -11.112465,-2.01083 -11.112465,-6.77331 0,-5.07999 7.196644,-7.83164 13.75829,-7.83164 4.021654,0 7.619976,0.42333 10.900799,1.26999 z M 61.489153,207.09469 c 2.857491,0.10583 5.397483,0.42333 7.40831,0.9525 1.481662,0.42333 1.904994,1.05833 1.904994,3.49249 0,2.75165 -0.105833,8.9958 0,14.18162 -3.704155,0.635 -7.831642,1.05833 -12.170795,1.05833 -6.032481,0 -10.5833,-2.11666 -14.81662,-5.39748 l -1.587495,1.48166 c 5.714982,8.14914 10.054135,9.6308 16.615781,9.6308 3.915821,0 7.937475,-0.42333 11.959129,-0.9525 0.211666,9.20747 0.846664,20.21411 1.164163,27.72825 -2.328326,-0.3175 -4.868318,-0.52917 -7.619976,-0.52917 -11.429964,0 -20.743268,4.12749 -20.743268,13.1233 0,7.61997 7.514143,11.95913 16.93328,11.95913 13.017459,0 17.99161,-5.71499 17.99161,-13.75829 0,-0.9525 0,-1.905 -0.105833,-3.06916 4.974151,2.22249 8.995805,5.50331 12.805793,9.20747 2.010827,1.90499 3.280823,3.17499 4.868318,3.17499 1.799161,0 2.751653,-1.27 2.751653,-3.38666 0,-2.01082 -1.269991,-4.02165 -3.386651,-5.92664 -3.280823,-3.06916 -8.889972,-7.19665 -17.462445,-9.52497 -0.634998,-8.14915 -1.587495,-19.04994 -1.587495,-29.95074 6.138314,-1.27 11.429964,-2.75166 14.393288,-3.70416 3.492489,-1.26999 4.868318,-2.22249 4.868318,-4.23332 0,-2.11666 -3.280823,-3.28082 -5.503316,-3.38665 -0.952497,0 -2.328326,1.05833 -6.773312,2.85749 -1.587495,0.63499 -3.915821,1.48166 -6.879145,2.32832 0.211666,-3.49249 0.423332,-6.45581 0.846664,-8.78414 0.740831,-4.65665 1.693328,-5.29165 1.693328,-7.40831 0,-2.53999 -5.609149,-5.39748 -10.054135,-5.39748 -2.328326,0 -5.503316,1.05833 -7.725809,2.01083 z"
       style="font-style:normal;font-variant:normal;font-weight:normal;font-stretch:normal;font-size:105.833px;line-height:100%;font-family:'Noto Serif CJK JP';-inkscape-font-specification:'Noto Serif CJK JP';text-align:center;letter-spacing:0px;word-spacing:0px;text-anchor:middle;fill:#000000;fill-opacity:1;stroke:none;stroke-width:0.264583px;stroke-linecap:butt;stroke-linejoin:miter;stroke-opacity:1"
       id="path9" />
  </g>
</svg>
