<?xml version="1.0" encoding="UTF-8" standalone="no"?>
<svg
   xmlns:dc="http://purl.org/dc/elements/1.1/"
   xmlns:cc="http://creativecommons.org/ns#"
   xmlns:rdf="http://www.w3.org/1999/02/22-rdf-syntax-ns#"
   xmlns:svg="http://www.w3.org/2000/svg"
   xmlns="http://www.w3.org/2000/svg"
   xmlns:sodipodi="http://sodipodi.sourceforge.net/DTD/sodipodi-0.dtd"
   xmlns:inkscape="http://www.inkscape.org/namespaces/inkscape"
   width="420"
   height="420"
   viewBox="0 0 111.125 111.12501"
   version="1.1"
   id="svg8"
   inkscape:version="1.0.2-2 (e86c870879, 2021-01-15)"
   sodipodi:docname="Hiragana letter Mu.svg">
  <defs
     id="defs2" />
  <sodipodi:namedview
     id="base"
     pagecolor="#ffffff"
     bordercolor="#666666"
     borderopacity="1.0"
     inkscape:pageopacity="0.0"
     inkscape:pageshadow="2"
     inkscape:zoom="0.98994949"
     inkscape:cx="345.76714"
     inkscape:cy="230.41447"
     inkscape:document-units="px"
     inkscape:current-layer="layer1"
     showgrid="false"
     units="px"
     showguides="true"
     inkscape:guide-bbox="true"
     inkscape:snap-center="true"
     inkscape:snap-object-midpoints="false"
     inkscape:window-width="1366"
     inkscape:window-height="705"
     inkscape:window-x="-8"
     inkscape:window-y="-8"
     inkscape:window-maximized="1"
     inkscape:document-rotation="0"
     inkscape:snap-bbox="true"
     inkscape:bbox-paths="true"
     inkscape:bbox-nodes="true" />
  <metadata
     id="metadata5">
    <rdf:RDF>
      <cc:Work
         rdf:about="">
        <dc:format>image/svg+xml</dc:format>
        <dc:type
           rdf:resource="http://purl.org/dc/dcmitype/StillImage" />
        <dc:title />
      </cc:Work>
    </rdf:RDF>
  </metadata>
  <g
     inkscape:label="Layer 1"
     inkscape:groupmode="layer"
     id="layer1"
     transform="translate(0,-185.87499)">
    <path
       d="m 27.040513,258.95286 c -3.598322,0 -6.879145,-3.49249 -6.879145,-7.83164 0,-5.18582 2.963324,-11.8533 9.313304,-11.8533 2.963324,0 4.868318,1.69333 4.868318,5.60915 0,8.57247 -1.269996,14.07579 -7.302477,14.07579 z M 9.7897336,215.34966 c 3.5983224,7.72581 6.3499804,10.68914 13.6524574,10.68914 3.915821,0 7.831642,-0.42333 11.535797,-0.9525 -0.317499,3.59832 -0.529165,7.19664 -0.846664,10.47747 -0.952497,-0.10584 -1.904994,-0.21167 -2.963324,-0.21167 -9.52497,0 -15.769117,8.88997 -15.769117,17.14495 0,6.45581 5.820815,13.01746 12.69996,13.01746 h 1.05833 c -0.634998,2.96332 -1.05833,5.82081 -1.05833,9.10163 0,10.47747 9.207471,13.01746 24.659089,13.01746 15.980783,0 31.538234,-5.29165 31.538234,-13.44079 0,-3.70415 -2.010827,-4.65665 -3.386656,-9.9483 -1.269996,-4.76248 -4.127487,-21.69576 -4.127487,-28.57491 0,-5.50332 1.05833,-9.20747 4.550819,-9.20747 5.29165,0 12.382461,6.24415 12.382461,12.80579 0,1.37583 -0.211666,2.11666 -1.693328,3.28083 -1.587495,1.05833 -5.29165,2.96332 -8.043308,4.12748 l 0.846664,2.11666 c 4.868318,-1.16416 8.149141,-0.84666 11.218298,-1.16416 3.915821,-0.42333 5.291641,-1.79916 5.291641,-5.29165 0,-10.05414 -9.101629,-19.79077 -19.261597,-19.79077 -6.032481,0 -9.313304,4.55082 -9.313304,15.23995 0,8.36081 3.492489,26.45825 3.492489,31.85573 0,4.44499 -1.587495,6.13832 -4.339153,7.51415 -3.809988,2.11666 -11.747463,3.91582 -20.425769,3.91582 -10.900799,0 -18.520775,-0.52917 -18.520775,-7.30248 0,-2.53999 0.529165,-6.13831 1.481662,-10.2658 4.868318,-3.59832 6.244147,-11.5358 6.244147,-19.04994 0,-3.17499 -0.846664,-5.29165 -2.222493,-6.77331 0.529165,-4.33916 1.05833,-9.20747 1.587495,-13.54663 7.302477,-1.58749 13.017459,-3.70415 15.028286,-4.44498 3.915821,-1.5875 6.138314,-2.75166 6.138314,-4.65665 0,-2.75166 -3.280823,-2.96333 -5.609149,-2.96333 -2.328326,0 -4.762485,3.06916 -14.710787,5.71498 0.317499,-2.96332 0.740831,-5.39748 0.952497,-6.77331 0.634998,-3.06916 1.693328,-3.38665 1.693328,-5.50331 0,-2.11666 -6.667479,-4.12749 -9.842469,-4.12749 -2.010827,0 -3.809988,0.3175 -6.032481,0.9525 0,0 0.105833,1.58749 0.105833,2.01082 1.587495,0.3175 4.23332,0.84667 5.609149,1.5875 1.799161,0.84666 2.222493,1.69333 2.222493,4.12748 0,1.79917 -0.105833,5.07999 -0.317499,9.10164 -3.280823,0.74083 -7.090811,1.37583 -11.006632,1.37583 -4.656652,0 -6.984978,-0.3175 -12.69996,-6.24415 z"
       style="font-style:normal;font-variant:normal;font-weight:normal;font-stretch:normal;font-size:105.833px;line-height:100%;font-family:'Noto Serif CJK JP';-inkscape-font-specification:'Noto Serif CJK JP';text-align:center;letter-spacing:0px;word-spacing:0px;text-anchor:middle;fill:#000000;fill-opacity:1;stroke:none;stroke-width:0.264583px;stroke-linecap:butt;stroke-linejoin:miter;stroke-opacity:1"
       id="path9" />
  </g>
</svg>
