<?xml version="1.0" encoding="UTF-8" standalone="no"?>
<svg
   xmlns:dc="http://purl.org/dc/elements/1.1/"
   xmlns:cc="http://creativecommons.org/ns#"
   xmlns:rdf="http://www.w3.org/1999/02/22-rdf-syntax-ns#"
   xmlns:svg="http://www.w3.org/2000/svg"
   xmlns="http://www.w3.org/2000/svg"
   xmlns:sodipodi="http://sodipodi.sourceforge.net/DTD/sodipodi-0.dtd"
   xmlns:inkscape="http://www.inkscape.org/namespaces/inkscape"
   width="420"
   height="420"
   viewBox="0 0 111.125 111.12501"
   version="1.1"
   id="svg8"
   inkscape:version="1.0.2-2 (e86c870879, 2021-01-15)"
   sodipodi:docname="Hiragana letter Me.svg">
  <defs
     id="defs2" />
  <sodipodi:namedview
     id="base"
     pagecolor="#ffffff"
     bordercolor="#666666"
     borderopacity="1.0"
     inkscape:pageopacity="0.0"
     inkscape:pageshadow="2"
     inkscape:zoom="0.98994949"
     inkscape:cx="345.76714"
     inkscape:cy="230.41447"
     inkscape:document-units="px"
     inkscape:current-layer="layer1"
     showgrid="false"
     units="px"
     showguides="true"
     inkscape:guide-bbox="true"
     inkscape:snap-center="true"
     inkscape:snap-object-midpoints="false"
     inkscape:window-width="1366"
     inkscape:window-height="705"
     inkscape:window-x="-8"
     inkscape:window-y="-8"
     inkscape:window-maximized="1"
     inkscape:document-rotation="0"
     inkscape:snap-bbox="true"
     inkscape:bbox-paths="true"
     inkscape:bbox-nodes="true" />
  <metadata
     id="metadata5">
    <rdf:RDF>
      <cc:Work
         rdf:about="">
        <dc:format>image/svg+xml</dc:format>
        <dc:type
           rdf:resource="http://purl.org/dc/dcmitype/StillImage" />
        <dc:title />
      </cc:Work>
    </rdf:RDF>
  </metadata>
  <g
     inkscape:label="Layer 1"
     inkscape:groupmode="layer"
     id="layer1"
     transform="translate(0,-185.87499)">
    <path
       d="m 51.435015,243.28958 c -1.481662,2.96332 -3.280823,5.92664 -5.29165,8.57247 -2.11666,-2.01083 -4.127487,-4.55082 -5.714982,-7.51414 -2.010827,-3.80999 -3.492489,-8.14914 -4.550819,-12.06497 7.302477,-5.50331 14.922453,-7.7258 23.600759,-8.14914 -2.010827,6.13832 -4.762485,12.91163 -8.043308,19.15578 z m -16.192449,20.63743 c -3.492489,2.75166 -6.138314,4.33915 -10.371634,4.33915 -2.963324,0 -5.079984,-2.43415 -5.079984,-8.3608 0,-6.13832 4.021654,-15.98079 11.429964,-23.49493 0.952497,3.06916 2.222493,6.34998 3.598322,9.41914 1.799161,3.80999 4.23332,7.93747 7.302477,11.32413 -2.328326,2.75166 -4.656652,5.18582 -6.879145,6.77331 z M 68.89746,214.60883 c 0.952497,-2.85749 2.539992,-4.33915 2.539992,-6.45581 0,-2.75166 -6.984978,-6.87914 -11.853296,-6.87914 -2.010827,0 -4.444986,0.74083 -6.138314,1.48166 l 0.211666,2.22249 c 2.539992,0 4.550819,0.21167 6.455813,0.74083 1.904994,0.52917 3.069157,1.16416 2.857491,3.59832 -0.317499,2.85749 -1.164163,6.56165 -2.222493,10.5833 -11.429964,0.3175 -19.367439,3.91582 -25.929085,8.25498 -0.423332,-1.69333 -0.846664,-3.38666 -1.164163,-4.65665 -1.164163,-4.65666 -4.868318,-6.98498 -7.302477,-8.57248 -1.904994,-1.26999 -4.550819,-2.32832 -7.090811,-3.06915 l -1.375829,1.48166 c 4.974151,4.23332 8.254974,7.51414 9.630803,11.53579 0.740831,2.01083 1.481662,4.44499 2.222493,6.98498 -5.714982,4.86832 -15.451618,16.40412 -15.451618,30.90324 0,6.45581 2.751658,12.69996 8.889972,12.69996 6.032481,0 10.794966,-2.75166 15.028286,-6.03248 3.17499,-2.43416 5.926648,-4.97415 8.572473,-8.14914 1.799161,1.37583 4.339153,2.75165 6.455813,2.75165 1.904994,0 3.280823,-0.84666 3.280823,-2.75165 0,-2.11666 -1.799161,-3.49249 -3.809988,-4.55082 -0.634998,-0.3175 -1.164163,-0.74083 -1.799161,-1.05833 1.799161,-2.75166 3.598322,-6.03248 5.609149,-9.73664 4.550819,-8.57247 7.196644,-15.55745 9.313304,-21.69576 14.075789,1.48166 23.494926,12.69996 23.494926,25.18825 0,13.65246 -8.043308,28.36324 -40.851538,33.76073 l 0.529165,2.53999 c 37.253216,-2.22249 47.836516,-18.20328 47.836516,-34.71322 0,-15.98079 -11.006632,-28.99825 -29.63324,-30.90324 z"
       style="font-style:normal;font-variant:normal;font-weight:normal;font-stretch:normal;font-size:105.833px;line-height:100%;font-family:'Noto Serif CJK JP';-inkscape-font-specification:'Noto Serif CJK JP';text-align:center;letter-spacing:0px;word-spacing:0px;text-anchor:middle;fill:#000000;fill-opacity:1;stroke:none;stroke-width:0.264583px;stroke-linecap:butt;stroke-linejoin:miter;stroke-opacity:1"
       id="path9" />
  </g>
</svg>
