<?xml version="1.0" encoding="UTF-8" standalone="no"?>
<svg
   xmlns:dc="http://purl.org/dc/elements/1.1/"
   xmlns:cc="http://creativecommons.org/ns#"
   xmlns:rdf="http://www.w3.org/1999/02/22-rdf-syntax-ns#"
   xmlns:svg="http://www.w3.org/2000/svg"
   xmlns="http://www.w3.org/2000/svg"
   xmlns:sodipodi="http://sodipodi.sourceforge.net/DTD/sodipodi-0.dtd"
   xmlns:inkscape="http://www.inkscape.org/namespaces/inkscape"
   width="420"
   height="420"
   viewBox="0 0 111.125 111.12501"
   version="1.1"
   id="svg8"
   inkscape:version="1.0.2-2 (e86c870879, 2021-01-15)"
   sodipodi:docname="Hiragana letter Ro.svg">
  <defs
     id="defs2" />
  <sodipodi:namedview
     id="base"
     pagecolor="#ffffff"
     bordercolor="#666666"
     borderopacity="1.0"
     inkscape:pageopacity="0.0"
     inkscape:pageshadow="2"
     inkscape:zoom="0.98994949"
     inkscape:cx="345.76714"
     inkscape:cy="230.41447"
     inkscape:document-units="px"
     inkscape:current-layer="layer1"
     showgrid="false"
     units="px"
     showguides="true"
     inkscape:guide-bbox="true"
     inkscape:snap-center="true"
     inkscape:snap-object-midpoints="false"
     inkscape:window-width="1366"
     inkscape:window-height="705"
     inkscape:window-x="-8"
     inkscape:window-y="-8"
     inkscape:window-maximized="1"
     inkscape:document-rotation="0"
     inkscape:snap-bbox="true"
     inkscape:bbox-paths="true"
     inkscape:bbox-nodes="true" />
  <metadata
     id="metadata5">
    <rdf:RDF>
      <cc:Work
         rdf:about="">
        <dc:format>image/svg+xml</dc:format>
        <dc:type
           rdf:resource="http://purl.org/dc/dcmitype/StillImage" />
        <dc:title />
      </cc:Work>
    </rdf:RDF>
  </metadata>
  <g
     inkscape:label="Layer 1"
     inkscape:groupmode="layer"
     id="layer1"
     transform="translate(0,-185.87499)">
    <path
       d="m 30.903413,203.81387 c -0.423332,1.90499 -0.634998,4.44498 -0.211666,6.13831 0.634998,3.06916 5.079984,7.51414 8.360807,7.51414 1.904994,0 3.280823,-1.37582 5.29165,-2.22249 4.127487,-1.79916 15.028286,-5.39748 19.155773,-6.24415 2.751658,-0.63499 2.539992,0.42334 1.269996,2.32833 -4.550819,5.71498 -27.410747,30.4799 -37.253216,39.05238 -4.974151,4.33915 -9.313304,7.19664 -9.313304,10.37163 0,2.75166 1.587495,5.18582 3.492489,5.18582 1.693328,0 2.539992,-1.16416 4.127487,-2.96333 10.5833,-11.95912 24.764922,-22.54242 39.15821,-22.54242 11.853296,0 20.531602,6.45581 20.531602,16.29828 0,16.29828 -17.568278,25.08242 -45.084858,27.09325 l 0.211666,2.53999 c 38.523212,1.26999 52.281502,-12.8058 52.281502,-26.56409 0,-14.49912 -11.64163,-22.85992 -27.093248,-22.85992 -6.984978,0 -15.451618,2.11666 -22.22493,5.60915 -1.05833,0.52916 -1.375829,0.31749 -0.423332,-0.635 4.444986,-4.76249 21.272433,-21.4841 26.775749,-26.35242 2.11666,-1.79916 5.714982,-2.43416 5.714982,-4.86832 0,-2.64582 -6.032481,-7.93747 -9.52497,-7.93747 -1.375829,0 -1.904994,1.48166 -4.23332,2.01082 -3.915821,1.16417 -19.579105,5.07999 -23.706592,5.07999 -2.645825,0 -4.127487,-3.28082 -5.503316,-6.34998 z"
       style="font-style:normal;font-variant:normal;font-weight:normal;font-stretch:normal;font-size:105.833px;line-height:100%;font-family:'Noto Serif CJK JP';-inkscape-font-specification:'Noto Serif CJK JP';text-align:center;letter-spacing:0px;word-spacing:0px;text-anchor:middle;fill:#000000;fill-opacity:1;stroke:none;stroke-width:0.264583px;stroke-linecap:butt;stroke-linejoin:miter;stroke-opacity:1"
       id="path9" />
  </g>
</svg>
