<?xml version="1.0" encoding="UTF-8" standalone="no"?>
<svg
   xmlns:dc="http://purl.org/dc/elements/1.1/"
   xmlns:cc="http://creativecommons.org/ns#"
   xmlns:rdf="http://www.w3.org/1999/02/22-rdf-syntax-ns#"
   xmlns:svg="http://www.w3.org/2000/svg"
   xmlns="http://www.w3.org/2000/svg"
   xmlns:sodipodi="http://sodipodi.sourceforge.net/DTD/sodipodi-0.dtd"
   xmlns:inkscape="http://www.inkscape.org/namespaces/inkscape"
   width="420"
   height="420"
   viewBox="0 0 111.125 111.12501"
   version="1.1"
   id="svg8"
   inkscape:version="1.0.2-2 (e86c870879, 2021-01-15)"
   sodipodi:docname="Hiragana letter Na.svg">
  <defs
     id="defs2" />
  <sodipodi:namedview
     id="base"
     pagecolor="#ffffff"
     bordercolor="#666666"
     borderopacity="1.0"
     inkscape:pageopacity="0.0"
     inkscape:pageshadow="2"
     inkscape:zoom="0.98994949"
     inkscape:cx="345.76714"
     inkscape:cy="230.41447"
     inkscape:document-units="px"
     inkscape:current-layer="layer1"
     showgrid="false"
     units="px"
     showguides="true"
     inkscape:guide-bbox="true"
     inkscape:snap-center="true"
     inkscape:snap-object-midpoints="false"
     inkscape:window-width="1366"
     inkscape:window-height="705"
     inkscape:window-x="-8"
     inkscape:window-y="-8"
     inkscape:window-maximized="1"
     inkscape:document-rotation="0"
     inkscape:snap-bbox="true"
     inkscape:bbox-paths="true"
     inkscape:bbox-nodes="true" />
  <metadata
     id="metadata5">
    <rdf:RDF>
      <cc:Work
         rdf:about="">
        <dc:format>image/svg+xml</dc:format>
        <dc:type
           rdf:resource="http://purl.org/dc/dcmitype/StillImage" />
        <dc:title />
      </cc:Work>
    </rdf:RDF>
  </metadata>
  <g
     inkscape:label="Layer 1"
     inkscape:groupmode="layer"
     id="layer1"
     transform="translate(0,-185.87499)">
    <path
       d="m 33.602155,202.12054 c 1.481662,0.42333 3.492489,0.9525 4.974151,1.69333 1.799161,0.74083 2.328326,1.58749 2.222493,3.80999 -0.211666,2.75165 -0.952497,7.30247 -1.904994,11.42996 -2.645825,0.635 -5.926648,1.16416 -8.995805,1.16416 -7.302477,0 -9.630803,-2.32832 -14.181622,-6.13831 l -1.904994,1.48166 c 3.386656,7.51414 6.984978,10.47747 14.922453,10.47747 2.645825,0 5.503316,-0.21167 8.360807,-0.635 -4.762485,15.45162 -13.652457,28.46908 -20.10827,37.04155 -1.375829,1.79916 -1.904994,3.38666 -1.904994,5.07998 0,1.905 0.952497,4.12749 3.069157,4.12749 2.010827,0 3.280823,-1.69333 4.762485,-3.80999 8.678306,-12.59412 16.298282,-32.0674 20.002437,-43.49736 7.090811,-1.48166 13.440791,-3.70416 16.721614,-5.39748 1.164163,-0.635 3.598322,-2.11666 3.598322,-4.02166 0,-1.69333 -1.693328,-3.17499 -3.915821,-3.17499 -2.010827,0 -4.127487,2.53999 -14.287455,5.71498 3.915821,-13.54662 4.339153,-15.45161 2.539992,-16.50994 -1.799161,-1.16417 -4.974151,-1.79916 -7.725809,-1.79916 -2.010827,0 -4.550819,0.63499 -6.244147,1.26999 z m 34.395725,67.62729 c 0,6.24414 -2.328326,11.32413 -12.488294,11.32413 -7.725809,0 -11.324131,-2.96333 -11.324131,-6.66748 0,-3.80999 5.079984,-7.83164 14.710787,-7.83164 3.280823,0 6.244147,0.3175 9.101638,0.84666 0,0.74083 0,1.5875 0,2.32833 z m 3.386656,-48.47152 c 4.868318,0 9.207471,0.9525 12.170795,3.17499 1.799161,1.37583 2.222493,2.75166 0,3.91582 -3.704155,1.5875 -8.46664,3.28083 -11.747463,6.77332 -3.386656,3.38665 -5.079984,7.30247 -5.079984,13.22912 0,4.12749 0.529165,8.88997 0.846664,13.54662 -1.481662,-0.10583 -3.069157,-0.21166 -4.762485,-0.21166 -14.075789,0 -22.648262,5.92665 -22.648262,13.96995 0,6.13832 5.926648,11.5358 16.93328,11.5358 10.794966,0 17.250779,-5.07998 17.250779,-13.86412 0,-1.27 -0.105833,-2.64583 -0.211666,-4.23332 6.032481,2.22249 10.900799,5.71498 14.922453,9.6308 2.328326,2.11666 3.598322,3.91582 5.609149,3.91582 1.693328,0 2.645825,-1.26999 2.645825,-3.38665 0,-2.64583 -2.222493,-5.60915 -7.302477,-8.88998 -4.021654,-2.75165 -9.630803,-5.82081 -16.509948,-7.40831 -0.846664,-6.34998 -1.904994,-13.01745 -2.010827,-16.19244 -0.105833,-3.80999 0.317499,-7.19665 2.645825,-9.52497 2.328326,-2.43416 6.138314,-3.70416 9.842469,-4.12749 4.550819,-0.3175 6.34998,1.37583 8.784139,1.37583 2.010827,0 3.069157,-1.37583 3.069157,-3.80999 0,-4.23332 -3.280823,-8.36081 -9.736636,-10.79497 -4.021654,-1.58749 -9.419137,-2.01082 -14.604954,-1.26999 z"
       style="font-style:normal;font-variant:normal;font-weight:normal;font-stretch:normal;font-size:105.833px;line-height:100%;font-family:'Noto Serif CJK JP';-inkscape-font-specification:'Noto Serif CJK JP';text-align:center;letter-spacing:0px;word-spacing:0px;text-anchor:middle;fill:#000000;fill-opacity:1;stroke:none;stroke-width:0.264583px;stroke-linecap:butt;stroke-linejoin:miter;stroke-opacity:1"
       id="path9" />
  </g>
</svg>
