<?xml version="1.0" encoding="UTF-8" standalone="no"?>
<svg
   xmlns:dc="http://purl.org/dc/elements/1.1/"
   xmlns:cc="http://creativecommons.org/ns#"
   xmlns:rdf="http://www.w3.org/1999/02/22-rdf-syntax-ns#"
   xmlns:svg="http://www.w3.org/2000/svg"
   xmlns="http://www.w3.org/2000/svg"
   xmlns:sodipodi="http://sodipodi.sourceforge.net/DTD/sodipodi-0.dtd"
   xmlns:inkscape="http://www.inkscape.org/namespaces/inkscape"
   width="420"
   height="420"
   viewBox="0 0 111.125 111.12501"
   version="1.1"
   id="svg8"
   inkscape:version="1.0.2-2 (e86c870879, 2021-01-15)"
   sodipodi:docname="Hiragana letter Ri.svg">
  <defs
     id="defs2" />
  <sodipodi:namedview
     id="base"
     pagecolor="#ffffff"
     bordercolor="#666666"
     borderopacity="1.0"
     inkscape:pageopacity="0.0"
     inkscape:pageshadow="2"
     inkscape:zoom="0.98994949"
     inkscape:cx="345.76714"
     inkscape:cy="230.41447"
     inkscape:document-units="px"
     inkscape:current-layer="layer1"
     showgrid="false"
     units="px"
     showguides="true"
     inkscape:guide-bbox="true"
     inkscape:snap-center="true"
     inkscape:snap-object-midpoints="false"
     inkscape:window-width="1366"
     inkscape:window-height="705"
     inkscape:window-x="-8"
     inkscape:window-y="-8"
     inkscape:window-maximized="1"
     inkscape:document-rotation="0"
     inkscape:snap-bbox="true"
     inkscape:bbox-paths="true"
     inkscape:bbox-nodes="true" />
  <metadata
     id="metadata5">
    <rdf:RDF>
      <cc:Work
         rdf:about="">
        <dc:format>image/svg+xml</dc:format>
        <dc:type
           rdf:resource="http://purl.org/dc/dcmitype/StillImage" />
        <dc:title />
      </cc:Work>
    </rdf:RDF>
  </metadata>
  <g
     inkscape:label="Layer 1"
     inkscape:groupmode="layer"
     id="layer1"
     transform="translate(0,-185.87499)">
    <path
       d="m 37.094644,211.32801 c 0,5.71498 -5.079984,26.14075 -5.079984,37.57072 0,2.75165 0.529165,7.61997 1.587495,9.84246 0.952497,2.11666 2.222493,2.64583 3.704155,2.64583 1.693328,0 2.963324,-1.27 2.963324,-3.38666 0,-3.49249 -0.634998,-6.56164 -0.634998,-10.79496 0,-7.40831 2.11666,-13.65246 5.503316,-20.21411 3.704155,-7.09081 10.371634,-11.85329 15.345785,-11.85329 7.40831,0 12.170795,10.2658 12.170795,27.51658 0,18.94411 -6.244147,35.03072 -31.855733,45.29652 l 1.164163,2.43416 c 28.363244,-7.40831 38.09988,-25.08242 38.09988,-46.98985 0,-18.83827 -5.820815,-32.49073 -18.520775,-32.49073 -6.879145,0 -14.287455,6.34998 -19.261606,15.13412 -1.164163,2.11666 -2.010827,2.01082 -1.587495,-0.21167 0.740831,-4.12749 1.375829,-7.30248 2.434159,-10.68913 0.634998,-2.53999 1.375829,-4.02166 1.375829,-6.24415 0,-2.32832 -3.069157,-7.09081 -6.984978,-9.73663 -1.481662,-1.05833 -2.963324,-1.69333 -5.079984,-2.32833 l -1.375829,1.37583 c 4.444986,5.07998 6.032481,7.61997 6.032481,13.12329 z"
       style="font-style:normal;font-variant:normal;font-weight:normal;font-stretch:normal;font-size:105.833px;line-height:100%;font-family:'Noto Serif CJK JP';-inkscape-font-specification:'Noto Serif CJK JP';text-align:center;letter-spacing:0px;word-spacing:0px;text-anchor:middle;fill:#000000;fill-opacity:1;stroke:none;stroke-width:0.264583px;stroke-linecap:butt;stroke-linejoin:miter;stroke-opacity:1"
       id="path9" />
  </g>
</svg>
