<?xml version="1.0" encoding="UTF-8" standalone="no"?>
<svg
   xmlns:dc="http://purl.org/dc/elements/1.1/"
   xmlns:cc="http://creativecommons.org/ns#"
   xmlns:rdf="http://www.w3.org/1999/02/22-rdf-syntax-ns#"
   xmlns:svg="http://www.w3.org/2000/svg"
   xmlns="http://www.w3.org/2000/svg"
   xmlns:sodipodi="http://sodipodi.sourceforge.net/DTD/sodipodi-0.dtd"
   xmlns:inkscape="http://www.inkscape.org/namespaces/inkscape"
   width="420"
   height="420"
   viewBox="0 0 111.125 111.12501"
   version="1.1"
   id="svg8"
   inkscape:version="1.0.2-2 (e86c870879, 2021-01-15)"
   sodipodi:docname="Hiragana letter Yo.svg">
  <defs
     id="defs2" />
  <sodipodi:namedview
     id="base"
     pagecolor="#ffffff"
     bordercolor="#666666"
     borderopacity="1.0"
     inkscape:pageopacity="0.0"
     inkscape:pageshadow="2"
     inkscape:zoom="0.98994949"
     inkscape:cx="345.76714"
     inkscape:cy="230.41447"
     inkscape:document-units="px"
     inkscape:current-layer="layer1"
     showgrid="false"
     units="px"
     showguides="true"
     inkscape:guide-bbox="true"
     inkscape:snap-center="true"
     inkscape:snap-object-midpoints="false"
     inkscape:window-width="1366"
     inkscape:window-height="705"
     inkscape:window-x="-8"
     inkscape:window-y="-8"
     inkscape:window-maximized="1"
     inkscape:document-rotation="0"
     inkscape:snap-bbox="true"
     inkscape:bbox-paths="true"
     inkscape:bbox-nodes="true" />
  <metadata
     id="metadata5">
    <rdf:RDF>
      <cc:Work
         rdf:about="">
        <dc:format>image/svg+xml</dc:format>
        <dc:type
           rdf:resource="http://purl.org/dc/dcmitype/StillImage" />
        <dc:title />
      </cc:Work>
    </rdf:RDF>
  </metadata>
  <g
     inkscape:label="Layer 1"
     inkscape:groupmode="layer"
     id="layer1"
     transform="translate(0,-185.87499)">
    <path
       d="m 37.570892,280.33113 c -7.937475,0 -11.853296,-2.96333 -11.853296,-6.66748 0,-5.07999 7.40831,-8.88997 17.568278,-8.88997 3.598322,0 6.984978,0.31749 10.265801,0.84666 -0.105833,10.05413 -2.963324,14.71079 -15.980783,14.71079 z m 19.896604,-50.58818 c 2.11666,0.9525 4.868318,2.01083 7.090811,2.01083 6.667479,0 15.345785,-1.79916 18.626608,-2.85749 2.751658,-0.84667 3.915821,-2.11666 3.915821,-3.38666 0,-2.32832 -2.010827,-3.70415 -6.138314,-3.70415 -1.481662,0 -3.386656,1.26999 -6.667479,2.32832 -3.704155,1.05833 -9.630803,2.11666 -13.652457,2.11666 -0.740831,0 -1.904994,0 -3.069157,-0.10583 0.211666,-4.86832 0.740831,-9.9483 1.375829,-12.69996 0.846664,-3.17499 2.11666,-4.02165 2.11666,-6.45581 0,-2.53999 -6.561646,-6.03248 -12.064962,-6.03248 -2.751658,0 -5.397483,0.74083 -7.831642,1.58749 l 0.211666,2.22249 c 2.434159,0.10584 5.29165,0.42334 7.40831,1.05833 1.904994,0.74084 2.645825,1.48167 2.857491,3.80999 0.211666,2.11666 0.317499,13.86413 0.423332,20.74327 0,7.19664 0.952497,21.8016 1.269996,29.84491 -2.11666,-0.21167 -4.444986,-0.3175 -6.879145,-0.3175 -12.69996,0 -24.976588,4.44498 -24.976588,14.28745 0,7.51415 7.725809,12.27663 18.732441,12.27663 12.911626,0 19.579105,-5.92665 19.579105,-14.81662 0,-1.79916 -0.105833,-3.28082 -0.211666,-4.65665 3.704155,1.05833 7.196644,2.43416 10.265801,4.23332 10.159968,5.71498 13.546624,11.74746 16.721614,11.74746 1.904994,0 3.069157,-1.05833 3.069157,-3.06916 0,-5.50331 -8.995805,-11.00663 -15.557451,-13.96995 -4.550819,-2.11666 -9.52497,-3.80999 -15.239952,-4.86832 -0.105833,-0.84666 -0.211666,-1.79916 -0.317499,-2.75166 -0.634998,-8.3608 -1.05833,-22.33076 -1.05833,-27.19908 z"
       style="font-style:normal;font-variant:normal;font-weight:normal;font-stretch:normal;font-size:105.833px;line-height:100%;font-family:'Noto Serif CJK JP';-inkscape-font-specification:'Noto Serif CJK JP';text-align:center;letter-spacing:0px;word-spacing:0px;text-anchor:middle;fill:#000000;fill-opacity:1;stroke:none;stroke-width:0.264583px;stroke-linecap:butt;stroke-linejoin:miter;stroke-opacity:1"
       id="path9" />
  </g>
</svg>
