<?xml version="1.0" encoding="UTF-8" standalone="no"?>
<svg
   xmlns:dc="http://purl.org/dc/elements/1.1/"
   xmlns:cc="http://creativecommons.org/ns#"
   xmlns:rdf="http://www.w3.org/1999/02/22-rdf-syntax-ns#"
   xmlns:svg="http://www.w3.org/2000/svg"
   xmlns="http://www.w3.org/2000/svg"
   xmlns:sodipodi="http://sodipodi.sourceforge.net/DTD/sodipodi-0.dtd"
   xmlns:inkscape="http://www.inkscape.org/namespaces/inkscape"
   width="420"
   height="420"
   viewBox="0 0 111.125 111.12501"
   version="1.1"
   id="svg8"
   inkscape:version="1.0.2-2 (e86c870879, 2021-01-15)"
   sodipodi:docname="Hiragana letter To.svg">
  <defs
     id="defs2" />
  <sodipodi:namedview
     id="base"
     pagecolor="#ffffff"
     bordercolor="#666666"
     borderopacity="1.0"
     inkscape:pageopacity="0.0"
     inkscape:pageshadow="2"
     inkscape:zoom="0.98994949"
     inkscape:cx="345.76714"
     inkscape:cy="230.41447"
     inkscape:document-units="px"
     inkscape:current-layer="layer1"
     showgrid="false"
     units="px"
     showguides="true"
     inkscape:guide-bbox="true"
     inkscape:snap-center="true"
     inkscape:snap-object-midpoints="false"
     inkscape:window-width="1366"
     inkscape:window-height="705"
     inkscape:window-x="-8"
     inkscape:window-y="-8"
     inkscape:window-maximized="1"
     inkscape:document-rotation="0"
     inkscape:snap-bbox="true"
     inkscape:bbox-paths="true"
     inkscape:bbox-nodes="true" />
  <metadata
     id="metadata5">
    <rdf:RDF>
      <cc:Work
         rdf:about="">
        <dc:format>image/svg+xml</dc:format>
        <dc:type
           rdf:resource="http://purl.org/dc/dcmitype/StillImage" />
        <dc:title />
      </cc:Work>
    </rdf:RDF>
  </metadata>
  <g
     inkscape:label="Layer 1"
     inkscape:groupmode="layer"
     id="layer1"
     transform="translate(0,-185.87499)">
    <path
       d="m 68.368295,218.31299 c 2.222493,1.16416 4.550819,2.53999 5.397483,4.44498 0.740831,1.37583 0.317499,2.11666 -1.375829,2.96333 -3.915821,2.11666 -14.81662,7.61997 -22.648262,12.27663 -3.069157,-2.11666 -4.762485,-5.07999 -5.820815,-8.67831 -1.481662,-4.33915 -2.222493,-12.06496 -2.328326,-16.08662 -0.105833,-2.53999 0.740831,-3.59832 0.740831,-5.50331 -0.105833,-2.43416 -5.714982,-5.82082 -10.477467,-5.82082 -2.11666,0 -4.021654,0.3175 -6.773312,1.05833 l 0.105833,2.2225 c 1.587495,0.3175 4.127487,0.74083 5.820815,1.37583 2.11666,0.74083 2.751658,1.79916 2.963324,3.49248 1.05833,7.72581 2.645825,16.61579 4.656652,22.1191 1.164163,3.38666 3.17499,6.77331 6.244147,8.99581 -6.984978,4.97415 -19.261606,15.23995 -19.261606,27.19908 0,11.00663 11.112465,17.03911 29.63324,17.03911 14.393288,0 23.071594,-1.48166 26.987415,-2.53999 2.11666,-0.635 3.809988,-1.905 3.809988,-3.28082 0,-3.17499 -3.280823,-4.12749 -6.984978,-4.12749 -3.069157,0 -11.006632,2.96332 -26.034918,2.96332 -16.509948,0 -22.436596,-4.97415 -22.436596,-11.2183 0,-9.84246 11.64163,-18.73244 20.10827,-23.60075 7.302477,-4.23332 19.155773,-9.84247 25.823252,-12.06497 4.23332,-1.48166 6.773312,-2.32832 6.773312,-4.44498 0,-2.2225 -2.645825,-6.34998 -6.455813,-8.46664 -1.904994,-1.05833 -4.656652,-1.5875 -7.514143,-2.01083 z"
       style="font-style:normal;font-variant:normal;font-weight:normal;font-stretch:normal;font-size:105.833px;line-height:100%;font-family:'Noto Serif CJK JP';-inkscape-font-specification:'Noto Serif CJK JP';text-align:center;letter-spacing:0px;word-spacing:0px;text-anchor:middle;fill:#000000;fill-opacity:1;stroke:none;stroke-width:0.264583px;stroke-linecap:butt;stroke-linejoin:miter;stroke-opacity:1"
       id="path9" />
  </g>
</svg>
