<?xml version="1.0" encoding="UTF-8" standalone="no"?>
<svg
   xmlns:dc="http://purl.org/dc/elements/1.1/"
   xmlns:cc="http://creativecommons.org/ns#"
   xmlns:rdf="http://www.w3.org/1999/02/22-rdf-syntax-ns#"
   xmlns:svg="http://www.w3.org/2000/svg"
   xmlns="http://www.w3.org/2000/svg"
   xmlns:sodipodi="http://sodipodi.sourceforge.net/DTD/sodipodi-0.dtd"
   xmlns:inkscape="http://www.inkscape.org/namespaces/inkscape"
   width="420"
   height="420"
   viewBox="0 0 111.125 111.12501"
   version="1.1"
   id="svg8"
   inkscape:version="1.0.2-2 (e86c870879, 2021-01-15)"
   sodipodi:docname="Hiragana letter Ne.svg">
  <defs
     id="defs2" />
  <sodipodi:namedview
     id="base"
     pagecolor="#ffffff"
     bordercolor="#666666"
     borderopacity="1.0"
     inkscape:pageopacity="0.0"
     inkscape:pageshadow="2"
     inkscape:zoom="0.98994949"
     inkscape:cx="345.76714"
     inkscape:cy="230.41447"
     inkscape:document-units="px"
     inkscape:current-layer="layer1"
     showgrid="false"
     units="px"
     showguides="true"
     inkscape:guide-bbox="true"
     inkscape:snap-center="true"
     inkscape:snap-object-midpoints="false"
     inkscape:window-width="1366"
     inkscape:window-height="705"
     inkscape:window-x="-8"
     inkscape:window-y="-8"
     inkscape:window-maximized="1"
     inkscape:document-rotation="0"
     inkscape:snap-bbox="true"
     inkscape:bbox-paths="true"
     inkscape:bbox-nodes="true" />
  <metadata
     id="metadata5">
    <rdf:RDF>
      <cc:Work
         rdf:about="">
        <dc:format>image/svg+xml</dc:format>
        <dc:type
           rdf:resource="http://purl.org/dc/dcmitype/StillImage" />
        <dc:title />
      </cc:Work>
    </rdf:RDF>
  </metadata>
  <g
     inkscape:label="Layer 1"
     inkscape:groupmode="layer"
     id="layer1"
     transform="translate(0,-185.87499)">
    <path
       d="m 67.045382,276.30947 c -6.032481,0 -9.207471,-2.64582 -9.207471,-6.03248 0,-4.02165 4.656652,-6.98498 11.535797,-6.98498 4.762485,0 8.889972,1.37583 12.488294,3.38666 -3.280823,6.45581 -7.831642,9.6308 -14.81662,9.6308 z M 33.81382,271.65282 c 0,1.69333 -0.529165,1.79916 -1.481662,0.74083 -1.481662,-1.79916 -5.185817,-6.77331 -8.254974,-10.79496 3.386656,-4.86832 6.773312,-9.84247 9.630803,-14.28746 -0.317499,9.6308 0.211666,19.26161 0.105833,24.34159 z m 5.29165,-37.78238 c 1.269996,-1.79916 2.434159,-3.49249 3.704155,-4.86832 1.375829,-1.58749 2.434159,-2.53999 2.434159,-3.80999 0,-1.16416 -1.904994,-3.06915 -3.598322,-4.12748 0.634998,-2.96333 1.375829,-5.39749 1.799161,-6.77332 1.164163,-4.23332 2.222493,-5.18581 2.222493,-7.40831 0,-3.06915 -5.29165,-7.7258 -9.736636,-7.7258 -2.328326,0 -4.444986,0.52916 -6.455813,1.16416 l 0.105833,2.11666 c 2.434159,0.42333 4.444986,0.84666 5.714982,1.37583 1.799161,0.84666 2.434159,1.26999 2.434159,3.70415 -0.105833,2.96333 -0.846664,8.14914 -1.587495,14.60496 -4.656652,2.32832 -15.028286,7.09081 -17.568278,7.09081 -2.010827,0 -3.598322,-1.69333 -5.079984,-4.86832 l -2.010827,0.635 c -0.105833,1.48166 0.105833,2.96332 0.529165,4.55082 1.05833,3.38665 5.397483,7.19664 8.46664,7.19664 1.799161,0 2.857491,-2.11666 5.079984,-3.49249 2.539992,-1.58749 6.244147,-3.59832 9.842469,-5.50331 -0.423332,3.06915 -0.740831,6.34998 -1.05833,9.6308 -7.302477,11.32413 -18.838274,25.61158 -23.071594,30.26824 -2.0108278,2.11666 -2.4341598,3.38665 -2.4341598,5.29165 0,2.11666 1.2699968,3.70415 2.8574918,3.70415 1.587495,0 2.645825,-1.37583 3.915821,-3.17499 2.010827,-2.75166 4.339153,-6.03248 6.773312,-9.52497 3.17499,4.65665 6.773312,10.9008 7.831642,13.65246 0.952497,2.32832 1.375829,4.12749 1.904994,6.66748 0.423332,2.43416 1.481662,3.59832 3.386656,3.59832 2.963324,0 4.444986,-3.80999 4.444986,-7.40831 0,-2.32833 -0.317499,-5.71498 -0.529165,-8.46664 -0.529165,-5.82082 -1.799161,-18.52078 -1.05833,-30.4799 11.006632,-11.95913 24.447423,-20.53161 33.125729,-20.53161 9.948302,0 14.181622,11.74747 14.181622,25.18826 0,5.39748 -0.634998,10.79496 -1.904994,15.23995 -3.704155,-1.37583 -8.149141,-2.32833 -13.229125,-2.32833 -9.52497,0 -16.404115,5.50332 -16.404115,11.64163 0,6.77332 6.032481,11.2183 14.287455,11.2183 9.207471,0 15.451618,-4.86832 18.944107,-11.5358 3.280823,2.64583 5.714982,5.39749 7.302477,7.09082 2.328326,2.43415 3.386656,3.80998 4.762485,3.70415 1.79916,0 2.85749,-1.58749 2.85749,-3.59832 0,-2.32833 -1.48167,-4.55082 -3.809987,-6.87915 -1.799161,-1.58749 -4.656652,-4.23332 -8.678306,-6.45581 1.693328,-5.50332 2.539992,-11.95913 2.539992,-18.41494 0,-13.12329 -5.185817,-28.78658 -19.790771,-28.78658 -11.429964,0 -26.775749,11.95913 -33.654894,17.99161 z"
       style="font-style:normal;font-variant:normal;font-weight:normal;font-stretch:normal;font-size:105.833px;line-height:100%;font-family:'Noto Serif CJK JP';-inkscape-font-specification:'Noto Serif CJK JP';text-align:center;letter-spacing:0px;word-spacing:0px;text-anchor:middle;fill:#000000;fill-opacity:1;stroke:none;stroke-width:0.264583px;stroke-linecap:butt;stroke-linejoin:miter;stroke-opacity:1"
       id="path9" />
  </g>
</svg>
