<?xml version="1.0" encoding="UTF-8" standalone="no"?>
<svg
   xmlns:dc="http://purl.org/dc/elements/1.1/"
   xmlns:cc="http://creativecommons.org/ns#"
   xmlns:rdf="http://www.w3.org/1999/02/22-rdf-syntax-ns#"
   xmlns:svg="http://www.w3.org/2000/svg"
   xmlns="http://www.w3.org/2000/svg"
   xmlns:sodipodi="http://sodipodi.sourceforge.net/DTD/sodipodi-0.dtd"
   xmlns:inkscape="http://www.inkscape.org/namespaces/inkscape"
   width="420"
   height="420"
   viewBox="0 0 111.125 111.12501"
   version="1.1"
   id="svg8"
   inkscape:version="1.0.2-2 (e86c870879, 2021-01-15)"
   sodipodi:docname="Hiragana letter Ma.svg">
  <defs
     id="defs2" />
  <sodipodi:namedview
     id="base"
     pagecolor="#ffffff"
     bordercolor="#666666"
     borderopacity="1.0"
     inkscape:pageopacity="0.0"
     inkscape:pageshadow="2"
     inkscape:zoom="0.98994949"
     inkscape:cx="345.76714"
     inkscape:cy="230.41447"
     inkscape:document-units="px"
     inkscape:current-layer="layer1"
     showgrid="false"
     units="px"
     showguides="true"
     inkscape:guide-bbox="true"
     inkscape:snap-center="true"
     inkscape:snap-object-midpoints="false"
     inkscape:window-width="1366"
     inkscape:window-height="705"
     inkscape:window-x="-8"
     inkscape:window-y="-8"
     inkscape:window-maximized="1"
     inkscape:document-rotation="0"
     inkscape:snap-bbox="true"
     inkscape:bbox-paths="true"
     inkscape:bbox-nodes="true" />
  <metadata
     id="metadata5">
    <rdf:RDF>
      <cc:Work
         rdf:about="">
        <dc:format>image/svg+xml</dc:format>
        <dc:type
           rdf:resource="http://purl.org/dc/dcmitype/StillImage" />
        <dc:title />
      </cc:Work>
    </rdf:RDF>
  </metadata>
  <g
     inkscape:label="Layer 1"
     inkscape:groupmode="layer"
     id="layer1"
     transform="translate(0,-185.87499)">
    <path
       d="m 41.751296,281.28362 c -7.090811,0 -10.900799,-3.06915 -10.900799,-6.77331 0,-4.33915 6.667479,-8.14914 17.039113,-8.14914 3.280823,0 6.561646,0.3175 9.630803,0.84666 -0.105833,10.05414 -2.963324,14.07579 -15.769117,14.07579 z m 19.684938,-44.13236 c 0,-4.97415 0.211666,-9.20747 0.423332,-12.69996 11.218298,-1.58749 21.060767,-3.91582 24.870755,-5.29165 2.010827,-0.74083 3.492489,-1.58749 3.492489,-3.38665 0,-2.2225 -2.963324,-3.28083 -5.503316,-3.28083 -1.481662,0 -3.280823,1.16417 -6.138314,2.11666 -3.280823,1.05833 -9.207471,2.54 -16.086616,3.70416 0.317499,-2.53999 0.634998,-4.65665 0.952497,-6.45581 0.529165,-2.75166 1.904994,-3.59833 1.904994,-5.82082 0,-2.75166 -6.561646,-5.71498 -11.112465,-5.71498 -2.857491,0 -5.397483,0.74083 -7.40831,1.69333 l 0.317499,2.22249 c 3.386656,0.3175 5.503316,0.52916 7.725809,1.16416 1.693328,0.635 2.11666,1.16417 2.11666,3.28083 0,0.95249 -0.105833,5.07998 -0.317499,10.47746 -5.609149,0.74083 -11.535797,1.27 -16.93328,1.27 -9.948302,0 -13.546624,-2.53999 -18.732441,-6.87915 l -1.799161,1.48167 c 5.397483,8.46664 11.64163,11.00663 21.484099,11.00663 5.079984,0 10.5833,-0.42333 15.87495,-0.9525 -0.105833,3.59832 -0.105833,7.30248 -0.105833,10.79497 v 4.23332 c -4.339153,0.52916 -8.784139,0.74083 -13.017459,0.74083 -10.5833,0 -15.028286,-2.53999 -8.254974,-11.32413 l -2.222493,-1.27 c -11.324131,11.2183 -4.021654,18.09744 10.794966,18.09744 4.23332,0 8.572473,-0.21166 12.911626,-0.63499 0.211666,6.45581 0.529165,12.17079 0.740831,16.40411 -2.11666,-0.21167 -4.339153,-0.3175 -6.667479,-0.3175 -13.229125,0 -24.129924,4.65665 -24.129924,13.01746 0,7.51414 7.619976,12.27663 17.99161,12.27663 11.747463,0 19.155773,-5.18582 19.155773,-14.18162 0,-1.37583 -0.105833,-2.75166 -0.211666,-4.23332 8.043308,2.43416 15.134119,6.56164 20.531602,11.53579 1.904994,1.79916 3.069157,2.85749 4.974151,2.85749 1.693328,0 2.857491,-1.05833 2.857491,-3.06915 0,-2.01083 -1.269996,-3.91582 -3.598322,-5.82082 -3.069157,-2.75166 -12.064962,-8.6783 -25.188254,-11.2183 -0.529165,-4.97415 -1.164163,-10.90079 -1.481662,-17.77994 10.371634,-1.16416 19.579105,-3.17499 23.600759,-4.65665 1.904994,-0.74083 3.069157,-1.79916 3.069157,-3.38666 0,-2.22249 -2.751658,-3.28082 -4.974151,-3.28082 -1.269996,0 -3.17499,1.16416 -6.667479,2.32833 -4.23332,1.37582 -9.52497,2.53999 -15.239952,3.28082 z"
       style="font-style:normal;font-variant:normal;font-weight:normal;font-stretch:normal;font-size:105.833px;line-height:100%;font-family:'Noto Serif CJK JP';-inkscape-font-specification:'Noto Serif CJK JP';text-align:center;letter-spacing:0px;word-spacing:0px;text-anchor:middle;fill:#000000;fill-opacity:1;stroke:none;stroke-width:0.264583px;stroke-linecap:butt;stroke-linejoin:miter;stroke-opacity:1"
       id="path9" />
  </g>
</svg>
