<?xml version="1.0" encoding="UTF-8" standalone="no"?>
<svg
   xmlns:dc="http://purl.org/dc/elements/1.1/"
   xmlns:cc="http://creativecommons.org/ns#"
   xmlns:rdf="http://www.w3.org/1999/02/22-rdf-syntax-ns#"
   xmlns:svg="http://www.w3.org/2000/svg"
   xmlns="http://www.w3.org/2000/svg"
   xmlns:sodipodi="http://sodipodi.sourceforge.net/DTD/sodipodi-0.dtd"
   xmlns:inkscape="http://www.inkscape.org/namespaces/inkscape"
   width="420"
   height="420"
   viewBox="0 0 111.125 111.12501"
   version="1.1"
   id="svg8"
   inkscape:version="1.0.2-2 (e86c870879, 2021-01-15)"
   sodipodi:docname="Hiragana letter Ru.svg">
  <defs
     id="defs2" />
  <sodipodi:namedview
     id="base"
     pagecolor="#ffffff"
     bordercolor="#666666"
     borderopacity="1.0"
     inkscape:pageopacity="0.0"
     inkscape:pageshadow="2"
     inkscape:zoom="0.98994949"
     inkscape:cx="345.76714"
     inkscape:cy="230.41447"
     inkscape:document-units="px"
     inkscape:current-layer="layer1"
     showgrid="false"
     units="px"
     showguides="true"
     inkscape:guide-bbox="true"
     inkscape:snap-center="true"
     inkscape:snap-object-midpoints="false"
     inkscape:window-width="1366"
     inkscape:window-height="705"
     inkscape:window-x="-8"
     inkscape:window-y="-8"
     inkscape:window-maximized="1"
     inkscape:document-rotation="0"
     inkscape:snap-bbox="true"
     inkscape:bbox-paths="true"
     inkscape:bbox-nodes="true" />
  <metadata
     id="metadata5">
    <rdf:RDF>
      <cc:Work
         rdf:about="">
        <dc:format>image/svg+xml</dc:format>
        <dc:type
           rdf:resource="http://purl.org/dc/dcmitype/StillImage" />
        <dc:title />
      </cc:Work>
    </rdf:RDF>
  </metadata>
  <g
     inkscape:label="Layer 1"
     inkscape:groupmode="layer"
     id="layer1"
     transform="translate(0,-185.87499)">
    <path
       d="m 56.196868,279.5903 c -10.265801,0 -14.81662,-3.28083 -14.81662,-6.98498 0,-3.38666 2.857491,-5.60915 6.561646,-5.60915 6.032481,0 11.218298,4.23332 12.594127,12.38246 -1.375829,0.10583 -2.857491,0.21167 -4.339153,0.21167 z M 33.231107,204.76636 c -0.423332,2.01083 -0.529165,4.23332 -0.105833,5.92665 0.846664,3.06916 4.762485,7.61998 8.784139,7.61998 1.693328,0 3.17499,-1.5875 5.185817,-2.43416 4.550819,-1.79916 13.75829,-5.07998 17.144946,-5.82082 1.269996,-0.21166 1.904994,0.21167 0.952497,1.79917 -4.444986,7.09081 -23.600759,25.29408 -40.21654,42.65069 -2.434159,2.43416 -3.386656,3.91583 -3.492489,5.82082 -0.105833,2.64582 1.481662,4.23332 2.751658,4.23332 1.587495,0.10583 2.434159,-0.52917 4.021654,-2.53999 8.889972,-11.42997 19.579105,-20.95494 34.819057,-20.95494 13.017459,0 20.10827,9.31331 19.790771,18.62661 -0.211666,8.25498 -5.503316,15.66329 -16.086616,18.62661 -1.693328,-10.37163 -9.630803,-15.23995 -17.250779,-15.23995 -6.879145,0 -11.853296,4.33915 -11.853296,9.9483 0,7.61998 8.043308,12.38246 19.896604,12.38246 20.002437,0 31.855733,-10.9008 32.067399,-24.12992 0.317499,-14.71079 -11.429964,-23.7066 -25.188254,-23.7066 -7.090811,0 -13.334958,1.905 -18.203276,3.70416 -0.846664,0.42333 -1.269996,-0.42333 -0.529165,-1.05833 4.762485,-5.29165 18.838274,-18.94411 24.235757,-23.38909 3.704155,-3.28083 6.138314,-3.38666 6.138314,-5.39749 0,-2.85749 -5.820815,-7.30247 -8.995805,-7.30247 -1.481662,0 -1.799161,1.05833 -4.127487,1.79916 -4.762485,1.37583 -18.097443,4.76248 -22.330763,4.76248 -2.751658,0 -4.127487,-3.17499 -5.503316,-6.24414 z"
       style="font-style:normal;font-variant:normal;font-weight:normal;font-stretch:normal;font-size:105.833px;line-height:100%;font-family:'Noto Serif CJK JP';-inkscape-font-specification:'Noto Serif CJK JP';text-align:center;letter-spacing:0px;word-spacing:0px;text-anchor:middle;fill:#000000;fill-opacity:1;stroke:none;stroke-width:0.264583px;stroke-linecap:butt;stroke-linejoin:miter;stroke-opacity:1"
       id="path9" />
  </g>
</svg>
