<?xml version="1.0" encoding="UTF-8" standalone="no"?>
<svg
   xmlns:dc="http://purl.org/dc/elements/1.1/"
   xmlns:cc="http://creativecommons.org/ns#"
   xmlns:rdf="http://www.w3.org/1999/02/22-rdf-syntax-ns#"
   xmlns:svg="http://www.w3.org/2000/svg"
   xmlns="http://www.w3.org/2000/svg"
   xmlns:sodipodi="http://sodipodi.sourceforge.net/DTD/sodipodi-0.dtd"
   xmlns:inkscape="http://www.inkscape.org/namespaces/inkscape"
   width="420"
   height="420"
   viewBox="0 0 111.125 111.12501"
   version="1.1"
   id="svg8"
   inkscape:version="1.0.2-2 (e86c870879, 2021-01-15)"
   sodipodi:docname="Hiragana letter Te.svg">
  <defs
     id="defs2" />
  <sodipodi:namedview
     id="base"
     pagecolor="#ffffff"
     bordercolor="#666666"
     borderopacity="1.0"
     inkscape:pageopacity="0.0"
     inkscape:pageshadow="2"
     inkscape:zoom="0.98994949"
     inkscape:cx="345.76714"
     inkscape:cy="230.41447"
     inkscape:document-units="px"
     inkscape:current-layer="layer1"
     showgrid="false"
     units="px"
     showguides="true"
     inkscape:guide-bbox="true"
     inkscape:snap-center="true"
     inkscape:snap-object-midpoints="false"
     inkscape:window-width="1366"
     inkscape:window-height="705"
     inkscape:window-x="-8"
     inkscape:window-y="-8"
     inkscape:window-maximized="1"
     inkscape:document-rotation="0"
     inkscape:snap-bbox="true"
     inkscape:bbox-paths="true"
     inkscape:bbox-nodes="true" />
  <metadata
     id="metadata5">
    <rdf:RDF>
      <cc:Work
         rdf:about="">
        <dc:format>image/svg+xml</dc:format>
        <dc:type
           rdf:resource="http://purl.org/dc/dcmitype/StillImage" />
        <dc:title />
      </cc:Work>
    </rdf:RDF>
  </metadata>
  <g
     inkscape:label="Layer 1"
     inkscape:groupmode="layer"
     id="layer1"
     transform="translate(0,-185.87499)">
    <path
       d="m 12.170972,217.14883 c 0.105833,1.58749 0,3.17499 0.423332,4.86831 0.952498,3.59833 6.244148,8.25498 10.159969,8.25498 2.222493,0 4.339153,-1.69333 6.455813,-2.64583 6.34998,-2.96332 21.378266,-7.93747 33.231562,-10.79496 1.164163,-0.3175 1.269996,0.3175 0.529165,0.95249 -11.959129,9.41914 -15.87495,23.3891 -15.87495,35.87739 0,11.95913 3.492489,18.30911 10.159968,23.17743 7.196644,5.50331 17.674111,5.92665 23.812425,5.92665 4.762485,0 7.619976,-0.9525 7.619976,-3.49249 0,-2.64583 -3.492489,-4.44499 -6.032481,-4.44499 -4.339153,0 -13.652457,0.635 -20.531602,-3.49249 -4.23332,-2.64582 -8.995805,-7.40831 -8.995805,-18.94411 0,-21.1666 10.5833,-31.00906 15.345785,-33.86656 5.29165,-3.28082 12.69996,-3.91582 17.779944,-3.91582 3.915821,0 7.090811,0.3175 9.101638,0.3175 2.328326,0 3.598322,-1.26999 3.598322,-2.75166 0,-1.48166 -0.846664,-2.64582 -3.17499,-3.70415 -1.693328,-0.74083 -4.762485,-1.16416 -7.514143,-1.16416 -3.598322,0 -11.853296,1.48166 -24.024091,4.33915 -17.462445,4.02165 -37.888214,10.15997 -43.39153,10.15997 -2.328326,0 -5.185817,-2.53999 -6.667479,-5.29165 z"
       style="font-style:normal;font-variant:normal;font-weight:normal;font-stretch:normal;font-size:105.833px;line-height:100%;font-family:'Noto Serif CJK JP';-inkscape-font-specification:'Noto Serif CJK JP';text-align:center;letter-spacing:0px;word-spacing:0px;text-anchor:middle;fill:#000000;fill-opacity:1;stroke:none;stroke-width:0.264583px;stroke-linecap:butt;stroke-linejoin:miter;stroke-opacity:1"
       id="path9" />
  </g>
</svg>
