<?xml version="1.0" encoding="UTF-8" standalone="no"?>
<svg
   xmlns:dc="http://purl.org/dc/elements/1.1/"
   xmlns:cc="http://creativecommons.org/ns#"
   xmlns:rdf="http://www.w3.org/1999/02/22-rdf-syntax-ns#"
   xmlns:svg="http://www.w3.org/2000/svg"
   xmlns="http://www.w3.org/2000/svg"
   xmlns:sodipodi="http://sodipodi.sourceforge.net/DTD/sodipodi-0.dtd"
   xmlns:inkscape="http://www.inkscape.org/namespaces/inkscape"
   width="420"
   height="420"
   viewBox="0 0 111.125 111.12501"
   version="1.1"
   id="svg8"
   inkscape:version="1.0.2-2 (e86c870879, 2021-01-15)"
   sodipodi:docname="Hiragana letter N.svg">
  <defs
     id="defs2" />
  <sodipodi:namedview
     id="base"
     pagecolor="#ffffff"
     bordercolor="#666666"
     borderopacity="1.0"
     inkscape:pageopacity="0.0"
     inkscape:pageshadow="2"
     inkscape:zoom="0.98994949"
     inkscape:cx="345.76714"
     inkscape:cy="230.41447"
     inkscape:document-units="px"
     inkscape:current-layer="layer1"
     showgrid="false"
     units="px"
     showguides="true"
     inkscape:guide-bbox="true"
     inkscape:snap-center="true"
     inkscape:snap-object-midpoints="false"
     inkscape:window-width="1366"
     inkscape:window-height="705"
     inkscape:window-x="-8"
     inkscape:window-y="-8"
     inkscape:window-maximized="1"
     inkscape:document-rotation="0"
     inkscape:snap-bbox="true"
     inkscape:bbox-paths="true"
     inkscape:bbox-nodes="true" />
  <metadata
     id="metadata5">
    <rdf:RDF>
      <cc:Work
         rdf:about="">
        <dc:format>image/svg+xml</dc:format>
        <dc:type
           rdf:resource="http://purl.org/dc/dcmitype/StillImage" />
        <dc:title />
      </cc:Work>
    </rdf:RDF>
  </metadata>
  <g
     inkscape:label="Layer 1"
     inkscape:groupmode="layer"
     id="layer1"
     transform="translate(0,-185.87499)">
    <path
       d="m 49.900437,206.45969 c 1.375829,0.9525 1.693328,2.43416 0.317499,5.07999 -3.809988,6.98497 -19.790771,33.23156 -28.998242,49.21234 -5.503316,9.52497 -9.630803,16.08662 -9.630803,19.89661 0,2.96332 1.693328,4.86831 3.598322,4.86831 2.010827,0 3.069157,-1.26999 4.021654,-3.59832 1.481662,-3.80999 3.492489,-10.05413 6.667479,-16.82745 5.079984,-10.37163 14.075789,-20.10827 24.129924,-20.10827 6.138314,0 7.937475,3.70416 7.937475,8.36081 0,6.24415 -0.952497,12.69996 -0.846664,18.52078 0,9.52497 5.503316,14.07579 14.393288,14.07579 10.689133,0 23.494926,-6.98498 28.045745,-30.26824 l -2.328326,-0.74083 c -4.656652,12.48829 -12.69996,24.12992 -24.447423,24.12992 -6.138314,0 -8.784139,-3.06916 -8.784139,-8.78414 0,-4.86832 0.529165,-11.2183 0.423332,-16.19245 -0.105833,-8.46664 -4.339153,-12.91162 -13.017459,-12.91162 -4.127487,0 -9.101638,1.79916 -14.604954,5.07998 -0.846664,0.52917 -1.375829,0 -0.846664,-0.84666 4.444986,-7.72581 15.134119,-23.17743 19.579105,-28.36325 2.645825,-3.28082 5.609149,-3.91582 5.609149,-6.03248 0,-3.28082 -4.550819,-7.83164 -9.419137,-8.9958 -1.904994,-0.635 -5.185817,-0.84667 -7.302477,-0.52917 l -0.634998,2.11666 c 1.904994,0.635 4.762485,1.69333 6.138314,2.85749 z"
       style="font-style:normal;font-variant:normal;font-weight:normal;font-stretch:normal;font-size:105.833px;line-height:100%;font-family:'Noto Serif CJK JP';-inkscape-font-specification:'Noto Serif CJK JP';text-align:center;letter-spacing:0px;word-spacing:0px;text-anchor:middle;fill:#000000;fill-opacity:1;stroke:none;stroke-width:0.264583px;stroke-linecap:butt;stroke-linejoin:miter;stroke-opacity:1"
       id="path9" />
  </g>
</svg>
