<?xml version="1.0" encoding="UTF-8" standalone="no"?>
<svg
   xmlns:dc="http://purl.org/dc/elements/1.1/"
   xmlns:cc="http://creativecommons.org/ns#"
   xmlns:rdf="http://www.w3.org/1999/02/22-rdf-syntax-ns#"
   xmlns:svg="http://www.w3.org/2000/svg"
   xmlns="http://www.w3.org/2000/svg"
   xmlns:sodipodi="http://sodipodi.sourceforge.net/DTD/sodipodi-0.dtd"
   xmlns:inkscape="http://www.inkscape.org/namespaces/inkscape"
   width="420"
   height="420"
   viewBox="0 0 111.125 111.12501"
   version="1.1"
   id="svg8"
   inkscape:version="1.0.2-2 (e86c870879, 2021-01-15)"
   sodipodi:docname="Hiragana letter Ya.svg">
  <defs
     id="defs2" />
  <sodipodi:namedview
     id="base"
     pagecolor="#ffffff"
     bordercolor="#666666"
     borderopacity="1.0"
     inkscape:pageopacity="0.0"
     inkscape:pageshadow="2"
     inkscape:zoom="0.98994949"
     inkscape:cx="345.76714"
     inkscape:cy="230.41447"
     inkscape:document-units="px"
     inkscape:current-layer="layer1"
     showgrid="false"
     units="px"
     showguides="true"
     inkscape:guide-bbox="true"
     inkscape:snap-center="true"
     inkscape:snap-object-midpoints="false"
     inkscape:window-width="1366"
     inkscape:window-height="705"
     inkscape:window-x="-8"
     inkscape:window-y="-8"
     inkscape:window-maximized="1"
     inkscape:document-rotation="0"
     inkscape:snap-bbox="true"
     inkscape:bbox-paths="true"
     inkscape:bbox-nodes="true" />
  <metadata
     id="metadata5">
    <rdf:RDF>
      <cc:Work
         rdf:about="">
        <dc:format>image/svg+xml</dc:format>
        <dc:type
           rdf:resource="http://purl.org/dc/dcmitype/StillImage" />
        <dc:title />
      </cc:Work>
    </rdf:RDF>
  </metadata>
  <g
     inkscape:label="Layer 1"
     inkscape:groupmode="layer"
     id="layer1"
     transform="translate(0,-185.87499)">
    <path
       d="m 45.9317,202.33221 c 6.773312,1.90499 10.159968,5.07998 11.429964,7.51414 0.740831,1.69333 0.317499,2.43416 -1.164163,2.53999 -3.069157,0.3175 -11.853296,0.74083 -20.637435,1.48166 -3.280823,0.21167 -7.619976,-0.42333 -8.784139,4.97415 -1.05833,4.12749 1.164163,5.82082 3.069157,8.14914 1.587495,1.905 3.386656,4.12749 5.609149,7.72581 l -8.889972,4.55082 c -3.809988,1.905 -6.879145,3.28083 -9.101638,3.28083 -2.434159,0 -4.656652,-2.75166 -6.244148,-5.07999 l -2.2224928,0.9525 c 0,2.43416 0.529165,4.23332 1.4816618,5.92665 1.693328,2.85749 6.561647,6.03248 9.313305,6.03248 2.963324,0 4.339153,-2.2225 9.52497,-5.39749 2.963324,-1.79916 6.032481,-3.70415 9.101638,-5.50331 6.34998,10.2658 10.689133,21.8016 13.334958,29.8449 2.11666,6.87915 3.17499,12.8058 3.915821,15.02829 0.846664,2.85749 2.010827,3.91582 3.704155,3.91582 2.328326,0 3.704155,-2.11666 3.704155,-5.07998 0,-3.38666 -1.799161,-9.31331 -3.598322,-13.96996 -4.021654,-9.41914 -9.207471,-21.37826 -16.192449,-32.7024 13.123292,-7.61997 26.352417,-13.96995 37.253216,-13.96995 8.360807,0 14.710787,5.18582 14.710787,12.80579 0,7.93748 -6.34998,12.69996 -15.451618,12.69996 -7.937475,0 -13.652457,-2.11666 -20.743268,-7.30248 l -1.904994,1.69333 c 6.984978,8.14914 15.557451,11.64163 22.965761,11.64163 11.853296,0 22.013261,-5.92665 22.013261,-17.35661 0,-10.37163 -8.360804,-17.77994 -21.166597,-17.77994 -11.959129,0 -25.717419,5.82081 -40.534039,13.22912 -3.069157,-4.55082 -7.302477,-9.84247 -7.302477,-12.06496 0,-2.11666 1.269996,-2.53999 4.444986,-2.96332 6.032481,-0.74084 15.663284,-0.635 19.790771,-0.21167 2.857491,0.21167 4.656652,1.16416 6.455813,1.16416 1.799161,0 2.963324,-1.05833 2.963324,-3.49249 0,-2.53999 -1.375829,-5.07998 -3.492489,-7.51414 -2.751658,-3.06916 -7.937475,-6.13831 -16.404115,-6.98498 z"
       style="font-style:normal;font-variant:normal;font-weight:normal;font-stretch:normal;font-size:105.833px;line-height:100%;font-family:'Noto Serif CJK JP';-inkscape-font-specification:'Noto Serif CJK JP';text-align:center;letter-spacing:0px;word-spacing:0px;text-anchor:middle;fill:#000000;fill-opacity:1;stroke:none;stroke-width:0.264583px;stroke-linecap:butt;stroke-linejoin:miter;stroke-opacity:1"
       id="path9" />
  </g>
</svg>
