<?xml version="1.0" encoding="UTF-8" standalone="no"?>
<svg
   xmlns:dc="http://purl.org/dc/elements/1.1/"
   xmlns:cc="http://creativecommons.org/ns#"
   xmlns:rdf="http://www.w3.org/1999/02/22-rdf-syntax-ns#"
   xmlns:svg="http://www.w3.org/2000/svg"
   xmlns="http://www.w3.org/2000/svg"
   xmlns:sodipodi="http://sodipodi.sourceforge.net/DTD/sodipodi-0.dtd"
   xmlns:inkscape="http://www.inkscape.org/namespaces/inkscape"
   width="420"
   height="420"
   viewBox="0 0 111.125 111.12501"
   version="1.1"
   id="svg8"
   inkscape:version="1.0.2-2 (e86c870879, 2021-01-15)"
   sodipodi:docname="Hiragana letter O.svg">
  <defs
     id="defs2" />
  <sodipodi:namedview
     id="base"
     pagecolor="#ffffff"
     bordercolor="#666666"
     borderopacity="1.0"
     inkscape:pageopacity="0.0"
     inkscape:pageshadow="2"
     inkscape:zoom="0.98994949"
     inkscape:cx="345.76714"
     inkscape:cy="230.41447"
     inkscape:document-units="px"
     inkscape:current-layer="layer1"
     showgrid="false"
     units="px"
     showguides="true"
     inkscape:guide-bbox="true"
     inkscape:snap-center="true"
     inkscape:snap-object-midpoints="false"
     inkscape:window-width="1366"
     inkscape:window-height="705"
     inkscape:window-x="-8"
     inkscape:window-y="-8"
     inkscape:window-maximized="1"
     inkscape:document-rotation="0"
     inkscape:snap-bbox="true"
     inkscape:bbox-paths="true"
     inkscape:bbox-nodes="true" />
  <metadata
     id="metadata5">
    <rdf:RDF>
      <cc:Work
         rdf:about="">
        <dc:format>image/svg+xml</dc:format>
        <dc:type
           rdf:resource="http://purl.org/dc/dcmitype/StillImage" />
        <dc:title />
      </cc:Work>
    </rdf:RDF>
  </metadata>
  <g
     inkscape:label="Layer 1"
     inkscape:groupmode="layer"
     id="layer1"
     transform="translate(0,-185.87499)">
    <path
       d="m 38.677229,274.19281 c 0,2.01083 -0.740831,2.85749 -2.963324,1.905 -3.280823,-1.48167 -8.043308,-3.91582 -11.959129,-5.92665 4.444986,-4.12749 9.842469,-8.78414 14.922453,-12.1708 z m 4.762485,-28.68074 c 0,-4.86832 0.105833,-9.9483 0.423332,-14.71079 5.079984,-1.58749 11.747463,-3.80999 15.663284,-5.82081 2.222493,-1.05833 3.386656,-2.32833 3.386656,-4.12749 -0.105833,-2.32833 -2.857491,-2.75166 -4.762485,-2.75166 -2.222493,0.10584 -5.714982,3.59832 -13.969956,6.66748 0.317499,-4.44498 0.740831,-8.14914 1.269996,-10.37163 0.740831,-3.38666 2.328326,-4.97415 2.328326,-7.51415 0,-2.53999 -6.773312,-5.92664 -10.794966,-5.92664 -2.645825,0 -5.185817,0.84666 -7.40831,2.01082 l 0.317499,2.01083 c 2.751658,0 4.868318,0.10583 6.667479,0.74083 1.693328,0.52917 2.11666,0.9525 2.11666,3.28082 0.105833,2.54 0,9.63081 0,17.46245 -4.23332,1.16416 -8.254974,1.79916 -11.218298,1.90499 -5.609149,0.21167 -7.196644,-0.84666 -12.594127,-6.13831 l -1.799161,1.37583 c 4.339153,9.6308 8.784139,10.5833 13.969956,10.5833 3.069157,0 7.831642,-0.9525 11.64163,-1.905 v 14.28746 6.13831 c -7.090811,4.02166 -15.345785,10.47747 -19.261606,12.8058 -1.799161,1.05833 -3.17499,1.58749 -6.032481,1.16416 -2.328326,-0.21167 -2.963324,0.635 -2.963324,3.06916 0,1.58749 0.529165,2.96332 1.904994,4.33915 1.05833,1.05833 2.222493,1.79916 3.386656,1.79916 1.481662,0 2.857491,-0.84666 6.032481,-3.80999 3.915821,2.53999 8.995805,6.34998 11.324131,8.36081 3.386656,3.06916 3.598322,6.34998 6.032481,6.34998 3.17499,0 6.032481,-4.86832 6.032481,-9.6308 0,-3.80999 -1.164163,-7.72581 -1.587495,-22.1191 8.360807,-4.76249 18.203276,-9.20747 26.987415,-9.20747 11.324131,0 16.404115,6.13831 16.404115,14.07579 0,8.3608 -5.820815,15.02828 -16.298282,15.02828 -7.196644,0 -12.488294,-2.96332 -16.721614,-6.34998 l -1.693328,1.69333 c 5.503316,7.30248 12.382461,10.5833 19.896604,10.5833 13.334958,0 21.484099,-8.78414 21.484099,-19.5791 0,-11.74747 -8.678306,-19.36744 -20.849101,-19.36744 -10.689133,0 -20.425769,3.59832 -29.315741,8.14914 z m 27.304914,-28.57491 c 7.40831,-0.52917 15.557451,0.21167 19.790771,6.13831 1.164163,1.69333 1.05833,2.54 -0.105833,3.80999 -1.481662,1.48166 -6.34998,4.44499 -8.46664,5.82082 l 1.164163,1.90499 c 2.222493,-1.05833 6.34998,-2.96332 8.149141,-3.17499 3.386656,-0.635 4.339153,2.11666 6.773312,1.5875 2.010828,-0.21167 2.751658,-2.01083 2.645828,-4.12749 -0.3175,-6.66748 -7.937478,-13.65246 -16.086619,-15.23995 -4.656652,-0.84667 -8.784139,-0.52917 -14.075789,0.52916 z"
       style="font-style:normal;font-variant:normal;font-weight:normal;font-stretch:normal;font-size:105.833px;line-height:100%;font-family:'Noto Serif CJK JP';-inkscape-font-specification:'Noto Serif CJK JP';text-align:center;letter-spacing:0px;word-spacing:0px;text-anchor:middle;fill:#000000;fill-opacity:1;stroke:none;stroke-width:0.264583px;stroke-linecap:butt;stroke-linejoin:miter;stroke-opacity:1"
       id="path9" />
  </g>
</svg>
