<?xml version="1.0" encoding="UTF-8" standalone="no"?>
<svg
   xmlns:dc="http://purl.org/dc/elements/1.1/"
   xmlns:cc="http://creativecommons.org/ns#"
   xmlns:rdf="http://www.w3.org/1999/02/22-rdf-syntax-ns#"
   xmlns:svg="http://www.w3.org/2000/svg"
   xmlns="http://www.w3.org/2000/svg"
   xmlns:sodipodi="http://sodipodi.sourceforge.net/DTD/sodipodi-0.dtd"
   xmlns:inkscape="http://www.inkscape.org/namespaces/inkscape"
   width="420"
   height="420"
   viewBox="0 0 111.125 111.12501"
   version="1.1"
   id="svg8"
   inkscape:version="1.0.2-2 (e86c870879, 2021-01-15)"
   sodipodi:docname="Hiragana letter Mo.svg">
  <defs
     id="defs2" />
  <sodipodi:namedview
     id="base"
     pagecolor="#ffffff"
     bordercolor="#666666"
     borderopacity="1.0"
     inkscape:pageopacity="0.0"
     inkscape:pageshadow="2"
     inkscape:zoom="0.98994949"
     inkscape:cx="345.76714"
     inkscape:cy="230.41447"
     inkscape:document-units="px"
     inkscape:current-layer="layer1"
     showgrid="false"
     units="px"
     showguides="true"
     inkscape:guide-bbox="true"
     inkscape:snap-center="true"
     inkscape:snap-object-midpoints="false"
     inkscape:window-width="1366"
     inkscape:window-height="705"
     inkscape:window-x="-8"
     inkscape:window-y="-8"
     inkscape:window-maximized="1"
     inkscape:document-rotation="0"
     inkscape:snap-bbox="true"
     inkscape:bbox-paths="true"
     inkscape:bbox-nodes="true" />
  <metadata
     id="metadata5">
    <rdf:RDF>
      <cc:Work
         rdf:about="">
        <dc:format>image/svg+xml</dc:format>
        <dc:type
           rdf:resource="http://purl.org/dc/dcmitype/StillImage" />
        <dc:title />
      </cc:Work>
    </rdf:RDF>
  </metadata>
  <g
     inkscape:label="Layer 1"
     inkscape:groupmode="layer"
     id="layer1"
     transform="translate(0,-185.87499)">
    <path
       d="m 28.098839,242.44291 c 0,-5.07998 9.419137,-11.2183 16.509948,-11.74746 -1.269996,5.29165 -2.963324,12.59413 -4.127487,19.5791 -9.948302,-1.37582 -12.382461,-4.65665 -12.382461,-7.83164 z m 35.771554,-4.55082 c 9.842469,7.30248 16.93328,13.96996 16.93328,25.61159 0,8.88997 -6.667479,17.99161 -20.637435,17.99161 -9.948302,0 -16.827447,-4.86832 -16.827447,-15.45162 0,-2.32832 0.317499,-5.29165 0.846664,-8.57247 5.079984,0.635 9.52497,0.52916 12.170795,0.3175 3.915821,-0.3175 5.185817,-1.48166 5.185817,-3.28083 0,-2.11666 -1.693328,-3.28082 -4.23332,-3.49248 -2.222493,-0.21167 -6.561646,0.10583 -11.853296,-0.21167 1.481662,-7.09081 3.492489,-14.60495 5.079984,-19.8966 2.645825,0.21166 5.29165,0.31749 6.773312,0.21166 2.645825,-0.10583 4.021654,-1.05833 4.021654,-2.75166 0,-1.79916 -1.375829,-3.59832 -4.762485,-3.91582 -1.269996,-0.10583 -2.539992,-0.21166 -3.915821,-0.21166 1.693328,-5.18582 2.963324,-8.57248 4.23332,-11.2183 1.269996,-2.64583 2.751658,-3.28082 2.751658,-5.29165 0,-2.85749 -6.34998,-8.04331 -11.324131,-8.04331 -2.11666,0 -4.021654,0.21167 -5.820815,0.42333 l -0.105833,2.43416 c 1.693328,0.3175 3.915821,0.74083 5.609149,1.5875 1.904994,0.84666 2.645825,1.48166 2.434159,4.12748 -0.317499,2.85749 -2.11666,8.88998 -4.021654,15.55745 -3.809988,-0.31749 -7.725809,-0.95249 -11.747463,-2.64582 -4.23332,-1.69333 -6.879145,-4.97415 -9.630803,-8.67831 l -1.799161,1.05833 c 1.481662,5.07999 3.386656,8.14914 7.302477,10.68914 2.751658,1.79916 4.974151,2.53999 7.725809,3.38665 -8.043308,4.02166 -14.393288,10.15997 -14.393288,15.98079 0,6.13831 5.714982,11.00663 15.663284,13.12329 -0.423332,3.38665 -0.740831,6.66748 -0.740831,9.3133 0,12.91163 7.619976,21.58993 22.013264,21.58993 18.414942,0 27.093248,-11.95913 27.093248,-22.11909 0,-11.5358 -6.138314,-21.27244 -22.542429,-29.42158 z"
       style="font-style:normal;font-variant:normal;font-weight:normal;font-stretch:normal;font-size:105.833px;line-height:100%;font-family:'Noto Serif CJK JP';-inkscape-font-specification:'Noto Serif CJK JP';text-align:center;letter-spacing:0px;word-spacing:0px;text-anchor:middle;fill:#000000;fill-opacity:1;stroke:none;stroke-width:0.264583px;stroke-linecap:butt;stroke-linejoin:miter;stroke-opacity:1"
       id="path9" />
  </g>
</svg>
