<?xml version="1.0" encoding="UTF-8" standalone="no"?>
<svg
   xmlns:dc="http://purl.org/dc/elements/1.1/"
   xmlns:cc="http://creativecommons.org/ns#"
   xmlns:rdf="http://www.w3.org/1999/02/22-rdf-syntax-ns#"
   xmlns:svg="http://www.w3.org/2000/svg"
   xmlns="http://www.w3.org/2000/svg"
   xmlns:sodipodi="http://sodipodi.sourceforge.net/DTD/sodipodi-0.dtd"
   xmlns:inkscape="http://www.inkscape.org/namespaces/inkscape"
   width="420"
   height="420"
   viewBox="0 0 111.125 111.12501"
   version="1.1"
   id="svg8"
   inkscape:version="1.0.2-2 (e86c870879, 2021-01-15)"
   sodipodi:docname="Hiragana letter E.svg">
  <defs
     id="defs2" />
  <sodipodi:namedview
     id="base"
     pagecolor="#ffffff"
     bordercolor="#666666"
     borderopacity="1.0"
     inkscape:pageopacity="0.0"
     inkscape:pageshadow="2"
     inkscape:zoom="0.98994949"
     inkscape:cx="345.76714"
     inkscape:cy="230.41447"
     inkscape:document-units="px"
     inkscape:current-layer="layer1"
     showgrid="false"
     units="px"
     showguides="true"
     inkscape:guide-bbox="true"
     inkscape:snap-center="true"
     inkscape:snap-object-midpoints="false"
     inkscape:window-width="1366"
     inkscape:window-height="705"
     inkscape:window-x="-8"
     inkscape:window-y="-8"
     inkscape:window-maximized="1"
     inkscape:document-rotation="0"
     inkscape:snap-bbox="true"
     inkscape:bbox-paths="true"
     inkscape:bbox-nodes="true" />
  <metadata
     id="metadata5">
    <rdf:RDF>
      <cc:Work
         rdf:about="">
        <dc:format>image/svg+xml</dc:format>
        <dc:type
           rdf:resource="http://purl.org/dc/dcmitype/StillImage" />
        <dc:title />
      </cc:Work>
    </rdf:RDF>
  </metadata>
  <g
     inkscape:label="Layer 1"
     inkscape:groupmode="layer"
     id="layer1"
     transform="translate(0,-185.87499)">
    <path
       d="m 23.124688,225.93296 c -0.423332,2.11666 -0.529165,4.02166 0.105833,5.92665 1.05833,3.06916 5.079984,7.19665 9.52497,7.19665 2.11666,0 3.280823,-1.69333 6.138314,-3.06916 6.032481,-2.53999 16.509948,-5.60915 21.272433,-6.66748 2.010827,-0.52916 2.963324,0.42333 1.481662,2.11666 -4.550819,5.18582 -14.710787,15.34579 -22.754095,23.17743 -5.503316,5.29165 -14.181622,13.33496 -18.626608,17.56828 -2.857491,2.75165 -5.185817,4.86831 -5.185817,8.57247 0,2.01083 1.481662,3.38665 3.17499,3.38665 1.904994,0 3.17499,-1.05833 4.444986,-2.64582 4.23332,-5.18582 10.477467,-14.18162 17.568278,-20.00244 3.17499,-2.85749 6.34998,-3.91582 9.630803,-3.91582 3.492489,0 5.079984,2.22249 5.714982,4.97415 0.952497,3.80999 1.799161,8.25498 2.434159,11.64163 1.799161,8.57248 4.868318,11.32413 16.298282,11.32413 7.937475,0 21.695765,-0.95249 21.695765,-5.18581 0,-2.32833 -2.222493,-3.80999 -6.34998,-3.80999 -3.915821,0 -5.714982,2.11666 -17.885777,2.11666 -5.079984,0 -6.773312,-1.79916 -8.254974,-7.40831 -0.952497,-3.80999 -2.11666,-8.25498 -3.280823,-11.64163 -1.375829,-3.91582 -4.762485,-5.60915 -8.46664,-5.60915 -1.799161,0 -4.23332,0 -6.34998,0.52916 5.714982,-5.60914 16.721614,-15.55745 21.060767,-18.9441 3.704155,-2.75166 7.090811,-3.59832 7.090811,-5.60915 0,-3.06916 -6.34998,-6.87915 -9.419137,-6.87915 -1.587495,0 -2.539992,1.48167 -5.185817,2.2225 -6.032481,1.69332 -24.235757,6.13831 -28.363244,6.13831 -2.222493,0 -4.23332,-2.32833 -5.820815,-5.92665 z m 30.479904,-16.50994 c -3.280823,1.48166 -8.678306,3.70415 -12.911626,5.50331 l 0.952497,2.2225 c 4.339153,-1.48167 13.546624,-4.44499 18.203276,-4.86832 2.857491,-0.3175 4.444986,-0.21167 6.561646,-0.21167 2.751658,0 3.704155,-1.26999 3.704155,-2.64582 0,-3.06916 -3.915821,-5.18582 -7.090811,-5.18582 -1.799161,0 -3.069157,0.52916 -6.032481,0.42333 -6.879145,-0.21166 -13.123292,-2.85749 -20.002437,-7.72581 l -1.587495,1.48166 c 6.455813,8.04331 14.604954,10.26581 18.203276,11.00664 z"
       style="font-style:normal;font-variant:normal;font-weight:normal;font-stretch:normal;font-size:105.833px;line-height:100%;font-family:'Noto Serif CJK JP';-inkscape-font-specification:'Noto Serif CJK JP';text-align:center;letter-spacing:0px;word-spacing:0px;text-anchor:middle;fill:#000000;fill-opacity:1;stroke:none;stroke-width:0.264583px;stroke-linecap:butt;stroke-linejoin:miter;stroke-opacity:1"
       id="path9" />
  </g>
</svg>
