<?xml version="1.0" encoding="UTF-8" standalone="no"?>
<svg
   xmlns:dc="http://purl.org/dc/elements/1.1/"
   xmlns:cc="http://creativecommons.org/ns#"
   xmlns:rdf="http://www.w3.org/1999/02/22-rdf-syntax-ns#"
   xmlns:svg="http://www.w3.org/2000/svg"
   xmlns="http://www.w3.org/2000/svg"
   xmlns:sodipodi="http://sodipodi.sourceforge.net/DTD/sodipodi-0.dtd"
   xmlns:inkscape="http://www.inkscape.org/namespaces/inkscape"
   width="420"
   height="420"
   viewBox="0 0 111.125 111.12501"
   version="1.1"
   id="svg8"
   inkscape:version="1.0.2-2 (e86c870879, 2021-01-15)"
   sodipodi:docname="Hiragana letter Ti.svg">
  <defs
     id="defs2" />
  <sodipodi:namedview
     id="base"
     pagecolor="#ffffff"
     bordercolor="#666666"
     borderopacity="1.0"
     inkscape:pageopacity="0.0"
     inkscape:pageshadow="2"
     inkscape:zoom="0.98994949"
     inkscape:cx="345.76714"
     inkscape:cy="230.41447"
     inkscape:document-units="px"
     inkscape:current-layer="layer1"
     showgrid="false"
     units="px"
     showguides="true"
     inkscape:guide-bbox="true"
     inkscape:snap-center="true"
     inkscape:snap-object-midpoints="false"
     inkscape:window-width="1366"
     inkscape:window-height="705"
     inkscape:window-x="-8"
     inkscape:window-y="-8"
     inkscape:window-maximized="1"
     inkscape:document-rotation="0"
     inkscape:snap-bbox="true"
     inkscape:bbox-paths="true"
     inkscape:bbox-nodes="true" />
  <metadata
     id="metadata5">
    <rdf:RDF>
      <cc:Work
         rdf:about="">
        <dc:format>image/svg+xml</dc:format>
        <dc:type
           rdf:resource="http://purl.org/dc/dcmitype/StillImage" />
        <dc:title />
      </cc:Work>
    </rdf:RDF>
  </metadata>
  <g
     inkscape:label="Layer 1"
     inkscape:groupmode="layer"
     id="layer1"
     transform="translate(0,-185.87499)">
    <path
       d="m 36.512562,203.17887 c 2.645825,0.42333 4.656652,0.84666 6.34998,1.48166 1.693328,0.52917 2.328326,1.05833 2.11666,3.17499 -0.105833,2.32833 -1.164163,7.93748 -2.328326,13.33496 -2.539992,0.3175 -4.974151,0.42333 -7.196644,0.42333 -6.879145,0 -11.112465,-1.48166 -17.250779,-7.40831 l -1.904994,1.37583 c 6.032481,10.68913 9.207471,11.5358 18.097443,11.5358 2.328326,0 4.656652,-0.10584 6.984978,-0.3175 -2.010827,8.36081 -6.032481,23.38909 -8.254974,29.10407 -1.587495,3.80999 -2.328326,4.23332 -2.328326,5.92665 0,3.28082 2.328326,7.19665 4.444986,7.19665 2.010827,0 3.598322,-4.02166 5.185817,-5.82082 7.619976,-8.67831 19.367439,-17.77994 31.114902,-17.77994 8.784139,0 16.086616,5.39748 16.086616,14.71078 0,7.51415 -4.868318,15.98079 -23.600759,21.06077 -5.609149,1.5875 -12.594127,2.75166 -20.743268,3.06916 l 0.317499,2.64582 c 24.129924,1.5875 51.223172,-5.92665 51.223172,-24.97659 0,-10.68913 -7.302477,-20.10827 -22.859928,-20.10827 -11.112465,0 -20.531602,4.97416 -30.374071,12.4883 -2.328326,1.90499 -2.328326,1.37583 -1.693328,-1.05833 1.587495,-5.92665 5.185817,-18.83828 7.302477,-27.09325 11.64163,-1.69333 21.907431,-4.97415 26.246584,-6.56165 3.809988,-1.48166 6.667479,-3.28082 6.667479,-5.07998 0,-2.53999 -3.069157,-3.28082 -5.29165,-3.28082 -1.693328,0 -3.809988,1.37583 -7.725809,3.38665 -4.444986,2.2225 -11.324131,4.33916 -18.414942,5.60915 0.952497,-3.70415 1.587495,-6.45581 2.328326,-8.78414 0.846664,-3.28082 2.963324,-3.91582 2.963324,-6.03248 0,-2.43416 -6.138314,-5.60915 -10.900799,-5.60915 -2.11666,0 -4.339153,0.52917 -6.667479,1.05833 z"
       style="font-style:normal;font-variant:normal;font-weight:normal;font-stretch:normal;font-size:105.833px;line-height:100%;font-family:'Noto Serif CJK JP';-inkscape-font-specification:'Noto Serif CJK JP';text-align:center;letter-spacing:0px;word-spacing:0px;text-anchor:middle;fill:#000000;fill-opacity:1;stroke:none;stroke-width:0.264583px;stroke-linecap:butt;stroke-linejoin:miter;stroke-opacity:1"
       id="path9" />
  </g>
</svg>
