<?xml version="1.0" encoding="UTF-8" standalone="no"?>
<svg
   xmlns:dc="http://purl.org/dc/elements/1.1/"
   xmlns:cc="http://creativecommons.org/ns#"
   xmlns:rdf="http://www.w3.org/1999/02/22-rdf-syntax-ns#"
   xmlns:svg="http://www.w3.org/2000/svg"
   xmlns="http://www.w3.org/2000/svg"
   xmlns:sodipodi="http://sodipodi.sourceforge.net/DTD/sodipodi-0.dtd"
   xmlns:inkscape="http://www.inkscape.org/namespaces/inkscape"
   width="420"
   height="420"
   viewBox="0 0 111.125 111.12501"
   version="1.1"
   id="svg8"
   inkscape:version="1.0.2-2 (e86c870879, 2021-01-15)"
   sodipodi:docname="Hiragana letter Nu.svg">
  <defs
     id="defs2" />
  <sodipodi:namedview
     id="base"
     pagecolor="#ffffff"
     bordercolor="#666666"
     borderopacity="1.0"
     inkscape:pageopacity="0.0"
     inkscape:pageshadow="2"
     inkscape:zoom="0.98994949"
     inkscape:cx="345.76714"
     inkscape:cy="230.41447"
     inkscape:document-units="px"
     inkscape:current-layer="layer1"
     showgrid="false"
     units="px"
     showguides="true"
     inkscape:guide-bbox="true"
     inkscape:snap-center="true"
     inkscape:snap-object-midpoints="false"
     inkscape:window-width="1366"
     inkscape:window-height="705"
     inkscape:window-x="-8"
     inkscape:window-y="-8"
     inkscape:window-maximized="1"
     inkscape:document-rotation="0"
     inkscape:snap-bbox="true"
     inkscape:bbox-paths="true"
     inkscape:bbox-nodes="true" />
  <metadata
     id="metadata5">
    <rdf:RDF>
      <cc:Work
         rdf:about="">
        <dc:format>image/svg+xml</dc:format>
        <dc:type
           rdf:resource="http://purl.org/dc/dcmitype/StillImage" />
        <dc:title />
      </cc:Work>
    </rdf:RDF>
  </metadata>
  <g
     inkscape:label="Layer 1"
     inkscape:groupmode="layer"
     id="layer1"
     transform="translate(0,-185.87499)">
    <path
       d="m 65.45789,275.88614 c -6.34998,0 -8.46664,-2.53999 -8.46664,-5.29165 0,-3.70415 4.974151,-6.24415 10.054135,-6.24415 3.915821,0 8.995805,1.27 14.075789,4.44499 -3.386656,4.33915 -8.254974,7.09081 -15.663284,7.09081 z M 50.217938,234.92877 c -2.010827,6.45581 -5.079984,14.81662 -10.265801,22.85993 -4.656652,-5.92665 -7.40831,-13.54663 -9.101638,-20.74327 5.503316,-6.03248 13.546624,-11.2183 22.119097,-13.75829 -0.740831,4.12749 -1.693328,8.36081 -2.751658,11.64163 z M 30.956332,269.007 c -3.492489,3.49248 -6.561646,4.55081 -9.207471,4.55081 -2.539992,0 -4.444986,-2.43415 -4.444986,-8.0433 0,-6.03248 2.645825,-13.75829 9.101638,-22.85993 2.328326,8.04331 5.609149,15.23995 9.52497,20.74327 -1.481662,1.90499 -3.17499,3.80998 -4.974151,5.60915 z m 14.710787,-64.34647 c 2.539992,0.10583 5.079984,0.42333 6.773312,1.16416 1.904994,0.52917 2.645825,1.27 2.539992,3.49249 -0.211666,2.64583 -0.634998,6.24415 -1.269996,10.05414 -9.736636,2.53999 -18.203276,7.72581 -23.918258,13.01746 -0.423332,-2.2225 -0.846664,-4.33916 -1.164163,-6.34998 -0.846664,-4.65665 -1.799161,-6.34998 -4.127487,-8.36081 -2.11666,-1.79916 -4.444986,-3.17499 -8.360807,-4.44499 l -1.375829,1.48167 c 3.386656,3.06915 5.503316,4.97415 6.984978,8.88997 1.269996,3.28082 1.799161,7.51414 3.280823,13.86412 -6.879145,8.25498 -13.229125,18.20328 -13.229125,30.47991 0,6.87914 3.598322,12.48829 9.419137,12.48829 4.762485,0 9.736636,-3.06916 13.546624,-6.66748 1.904994,-1.79916 3.598322,-3.80999 5.185817,-5.82081 1.587495,1.26999 2.963324,2.01082 4.23332,2.01082 1.904994,0 2.751658,-1.26999 2.751658,-2.96332 0,-1.69333 -1.375829,-3.28082 -2.857491,-4.86832 5.714982,-8.9958 9.630803,-19.04994 12.382461,-28.46908 1.164163,-3.70415 2.222493,-7.83164 3.069157,-11.74746 1.481662,-0.10583 2.857491,-0.21167 4.23332,-0.21167 14.075789,0.10584 23.28326,10.05414 23.28326,23.81243 0,7.72581 -0.846664,13.22912 -2.963324,18.20328 -4.23332,-1.905 -9.630803,-3.38666 -15.451618,-3.38666 -8.149141,0 -15.345785,4.23332 -15.345785,11.11246 0,5.29165 4.127487,10.37164 14.181622,10.37164 8.572473,0 14.81662,-3.91582 18.732441,-9.10164 2.963324,2.53999 5.29165,5.18582 7.196644,7.51414 1.269996,1.37583 2.010827,1.905 3.386656,1.905 1.375829,0 2.539988,-1.27 2.539988,-3.38666 0,-2.75166 -2.222489,-7.09081 -9.630799,-11.85329 2.857491,-5.92665 4.127487,-12.27663 4.127487,-19.89661 0,-15.87495 -10.054135,-28.99824 -28.892409,-28.99824 -1.481662,0 -3.069157,0.10583 -4.444986,0.21167 0.952497,-4.65666 1.693328,-8.46664 1.904994,-10.15997 0.423332,-2.53999 -0.317499,-3.49249 -1.799161,-4.44499 -1.693328,-1.37583 -5.185817,-2.53999 -7.725809,-2.64582 -1.904994,-0.10584 -4.762485,0.52916 -7.40831,1.58749 z"
       style="font-style:normal;font-variant:normal;font-weight:normal;font-stretch:normal;font-size:105.833px;line-height:100%;font-family:'Noto Serif CJK JP';-inkscape-font-specification:'Noto Serif CJK JP';text-align:center;letter-spacing:0px;word-spacing:0px;text-anchor:middle;fill:#000000;fill-opacity:1;stroke:none;stroke-width:0.264583px;stroke-linecap:butt;stroke-linejoin:miter;stroke-opacity:1"
       id="path9" />
  </g>
</svg>
