<?xml version="1.0" encoding="UTF-8" standalone="no"?>
<svg
   xmlns:dc="http://purl.org/dc/elements/1.1/"
   xmlns:cc="http://creativecommons.org/ns#"
   xmlns:rdf="http://www.w3.org/1999/02/22-rdf-syntax-ns#"
   xmlns:svg="http://www.w3.org/2000/svg"
   xmlns="http://www.w3.org/2000/svg"
   xmlns:sodipodi="http://sodipodi.sourceforge.net/DTD/sodipodi-0.dtd"
   xmlns:inkscape="http://www.inkscape.org/namespaces/inkscape"
   width="420"
   height="420"
   viewBox="0 0 111.125 111.12501"
   version="1.1"
   id="svg8"
   inkscape:version="1.0.2-2 (e86c870879, 2021-01-15)"
   sodipodi:docname="Hiragana letter No.svg">
  <defs
     id="defs2" />
  <sodipodi:namedview
     id="base"
     pagecolor="#ffffff"
     bordercolor="#666666"
     borderopacity="1.0"
     inkscape:pageopacity="0.0"
     inkscape:pageshadow="2"
     inkscape:zoom="0.98994949"
     inkscape:cx="345.76714"
     inkscape:cy="230.41447"
     inkscape:document-units="px"
     inkscape:current-layer="layer1"
     showgrid="false"
     units="px"
     showguides="true"
     inkscape:guide-bbox="true"
     inkscape:snap-center="true"
     inkscape:snap-object-midpoints="false"
     inkscape:window-width="1366"
     inkscape:window-height="705"
     inkscape:window-x="-8"
     inkscape:window-y="-8"
     inkscape:window-maximized="1"
     inkscape:document-rotation="0"
     inkscape:snap-bbox="true"
     inkscape:bbox-paths="true"
     inkscape:bbox-nodes="true" />
  <metadata
     id="metadata5">
    <rdf:RDF>
      <cc:Work
         rdf:about="">
        <dc:format>image/svg+xml</dc:format>
        <dc:type
           rdf:resource="http://purl.org/dc/dcmitype/StillImage" />
        <dc:title />
      </cc:Work>
    </rdf:RDF>
  </metadata>
  <g
     inkscape:label="Layer 1"
     inkscape:groupmode="layer"
     id="layer1"
     transform="translate(0,-185.87499)">
    <path
       d="m 53.551675,223.18131 c 0,4.76248 -1.799161,11.21829 -3.809988,16.29828 -4.339153,10.05413 -14.075789,26.77575 -21.060767,26.77575 -4.339153,0 -8.995805,-7.72581 -8.995805,-17.88578 0,-9.3133 4.127487,-17.88578 10.900799,-24.44742 5.397483,-5.29165 12.594127,-8.99581 20.002437,-10.47747 1.799161,3.17499 2.963324,5.92665 2.963324,9.73664 z m -1.799161,59.79564 c 34.607391,-2.22249 45.614023,-20.2141 45.614023,-37.78238 0,-21.90743 -16.827447,-36.19489 -38.629045,-36.19489 -11.324131,0 -22.22493,3.59833 -30.903236,11.32414 -8.995805,8.0433 -14.075789,19.04994 -14.075789,29.73907 0,13.01746 7.40831,24.23576 14.499121,24.23576 10.794966,0 23.071594,-20.53161 27.51658,-33.23157 2.11666,-6.03248 3.280823,-11.95913 3.280823,-17.03911 0,-4.12749 -2.11666,-7.83164 -4.550819,-11.2183 1.269996,-0.10583 2.539992,-0.21166 3.809988,-0.21166 17.462445,0 31.432401,12.06496 31.432401,30.90323 0,19.15578 -12.488294,32.49073 -38.417379,37.04155 z"
       style="font-style:normal;font-variant:normal;font-weight:normal;font-stretch:normal;font-size:105.833px;line-height:100%;font-family:'Noto Serif CJK JP';-inkscape-font-specification:'Noto Serif CJK JP';text-align:center;letter-spacing:0px;word-spacing:0px;text-anchor:middle;fill:#000000;fill-opacity:1;stroke:none;stroke-width:0.264583px;stroke-linecap:butt;stroke-linejoin:miter;stroke-opacity:1"
       id="path9" />
  </g>
</svg>
